<svg id="ab651a3a-84b9-464b-94ae-ec92c9b0ae01" data-name="Layer 1" xmlns="http://www.w3.org/2000/svg" viewBox="0 0 1033 371"><defs><style>.ee6ea777-3103-4732-bddd-b08382b6254d{fill:none;stroke:#c93;stroke-miterlimit:10;stroke-width:2px;}.fccfe918-98bb-46fa-8c0d-f88a153aabbb{isolation:isolate;}.e75afa49-3193-49a5-a474-7c55c5466bd9{fill:#ddb0b0;}</style></defs><title>Artboard 1</title><line class="ee6ea777-3103-4732-bddd-b08382b6254d" x1="12.3" y1="154.10001" x2="290.39999" y2="204.89999"/><line class="ee6ea777-3103-4732-bddd-b08382b6254d" x1="10" y1="248.3" x2="292.70001" y2="245.2"/><line class="ee6ea777-3103-4732-bddd-b08382b6254d" x1="21.5" y1="350.39999" x2="297.39999" y2="288.60001"/><line class="ee6ea777-3103-4732-bddd-b08382b6254d" x1="1016" y1="154.10001" x2="737.90002" y2="204.89999"/><line class="ee6ea777-3103-4732-bddd-b08382b6254d" x1="1018.29999" y1="248.3" x2="735.59998" y2="245.2"/><line class="ee6ea777-3103-4732-bddd-b08382b6254d" x1="1006.79999" y1="350.39999" x2="731" y2="288.60001"/><line class="ee6ea777-3103-4732-bddd-b08382b6254d" x1="267.89999" y1="13.9" x2="393" y2="75.9"/><line class="ee6ea777-3103-4732-bddd-b08382b6254d" x1="270.20001" y1="16.1" x2="288" y2="141.2"/><line class="ee6ea777-3103-4732-bddd-b08382b6254d" x1="760.40002" y1="12.7" x2="635.40002" y2="74.8"/><line class="ee6ea777-3103-4732-bddd-b08382b6254d" x1="758.09998" y1="15" x2="740.29999" y2="140.10001"/><g class="fccfe918-98bb-46fa-8c0d-f88a153aabbb"><g class="fccfe918-98bb-46fa-8c0d-f88a153aabbb"><path class="e75afa49-3193-49a5-a474-7c55c5466bd9" d="M450.13867,198.2002a39.71677,39.71677,0,0,1-.498,6.79687,16.98111,16.98111,0,0,1-1.377,4.57031,6.38269,6.38269,0,0,1-2.13867,2.57813,4.90073,4.90073,0,0,1-2.72461.82031,5.09286,5.09286,0,0,1-2.46094-.76172,13.58556,13.58556,0,0,1-2.54883-1.875,13.22232,13.22232,0,0,1-1.99218-2.28515,3.84161,3.84161,0,0,1-.791-2.05079,1.15354,1.15354,0,0,1,.14649-.73242.47165.47165,0,0,1,.41015-.11719,3.55241,3.55241,0,0,1,.64453.14649,2.87779,2.87779,0,0,0,.84961.11719q1.63989,0,2.373-2.08008a21.79617,21.79617,0,0,0,.73242-6.65039V130.40723a55.07513,55.07513,0,0,0-10.72265,1.96289,27.43008,27.43008,0,0,0-9.082,4.48242,21.43129,21.43129,0,0,0-6.26953,7.76367,26.50856,26.50856,0,0,0-2.34375,11.74805,23.3681,23.3681,0,0,0,.61524,5.5957,21.5,21.5,0,0,0,1.61133,4.48242,20.31659,20.31659,0,0,0,2.19726,3.51563,30.33745,30.33745,0,0,0,2.37305,2.69531q.99535-.293,1.40625.23438a2.3378,2.3378,0,0,1,.41015,1.46484,6.606,6.606,0,0,1-.498,2.43164,8.82691,8.82691,0,0,1-1.31836,2.28516,7.96178,7.96178,0,0,1-1.8457,1.69921,3.75371,3.75371,0,0,1-2.08008.67383,3.46541,3.46541,0,0,1-.90821-.11718,2.32211,2.32211,0,0,1-.9082-.52735,19.3618,19.3618,0,0,1-3.10547-3.07617,28.26617,28.26617,0,0,1-3.457-5.30273,39.27222,39.27222,0,0,1-2.8125-7.23633,31.75582,31.75582,0,0,1-1.17187-8.81836,34.53513,34.53513,0,0,1,3.22265-15.293,31.22342,31.22342,0,0,1,8.96485-11.10352,39.94924,39.94924,0,0,1,13.623-6.76757,61.77683,61.77683,0,0,1,17.25586-2.28516q2.16725,0,5.24414.0293,3.07617.03075,6.123.08789,3.04614.05859,5.47851.08789,2.43092.03075,3.31055.02929a4.55508,4.55508,0,0,0,1.25977-.14648,4.18532,4.18532,0,0,0,.82031-.32227,3.18669,3.18669,0,0,0,.498-.32226.51405.51405,0,0,1,.293-.14649.71737.71737,0,0,1,.55664.38086,4.23544,4.23544,0,0,1,.46875.9375,7.06472,7.06472,0,0,1,.32226,1.25977,8.59321,8.59321,0,0,1,.11719,1.40625,8.86382,8.86382,0,0,1-.293,2.19726,6.95068,6.95068,0,0,1-.87891,2.05079,5.07134,5.07134,0,0,1-1.46484,1.49414,3.61145,3.61145,0,0,1-2.05078.58593q-.64527,0-2.373-.02929-1.72924-.02929-3.95508-.08789-2.22729-.05714-4.6875-.11719-2.46093-.05714-4.57031-.11719Z"/><path class="e75afa49-3193-49a5-a474-7c55c5466bd9" d="M466.48633,130.99316a8.21682,8.21682,0,0,0-.20508-2.05078,7.77648,7.77648,0,0,0-.41016-1.20117,3.77207,3.77207,0,0,0-.41015-.70312.888.888,0,0,1-.20508-.55664.68864.68864,0,0,1,.35156-.58594,3.55905,3.55905,0,0,1,.9375-.41016,7.94539,7.94539,0,0,1,1.25977-.26367,10.17806,10.17806,0,0,1,1.31836-.08789,6.80524,6.80524,0,0,1,4.71679,1.55273,4.83635,4.83635,0,0,1,1.72852,3.72071v39.375a41.33825,41.33825,0,0,1,2.666-4.6875,22.48605,22.48605,0,0,1,3.10546-3.7793,13.56745,13.56745,0,0,1,3.57422-2.51953,9.46859,9.46859,0,0,1,4.13086-.9082,9.77515,9.77515,0,0,1,4.92188,1.11328,8.62458,8.62458,0,0,1,3.04687,2.87109,11.57465,11.57465,0,0,1,1.55274,3.92578,21.21379,21.21379,0,0,1,.43945,4.21875v24.84375q0,.41016.05859,1.31836a7.81009,7.81009,0,0,0,.35157,1.8457,4.48756,4.48756,0,0,0,.9082,1.64063,2.24665,2.24665,0,0,0,1.78711.70312,4.331,4.331,0,0,0,3.13476-1.28906,11.87882,11.87882,0,0,0,2.28516-3.22265,22.69494,22.69494,0,0,0,1.582-4.18946q.61524-2.25439,1.02539-4.248a5.55467,5.55467,0,0,1,1.084-2.63672,2.47183,2.47183,0,0,1,1.582-.90821,2.76785,2.76785,0,0,1,1.72851.43946,5.39116,5.39116,0,0,1,1.52344,1.37695,6.06589,6.06589,0,0,1,.9668,1.9043,3.69268,3.69268,0,0,1,.08789,1.99218,58.32349,58.32349,0,0,1-2.13867,6.26954,26.75184,26.75184,0,0,1-3.36914,6.03515,18.26926,18.26926,0,0,1-4.92188,4.57031,12.34372,12.34372,0,0,1-6.73828,1.81641,9.50189,9.50189,0,0,1-4.248-.9082,9.955,9.955,0,0,1-3.16406-2.43164,10.29563,10.29563,0,0,1-1.99219-3.57422,13.78837,13.78837,0,0,1-.67383-4.33594v-24.375q0-1.40625-.05859-2.63672a9.79249,9.79249,0,0,0-.32226-2.168,3.73338,3.73338,0,0,0-.76172-1.49414,1.7536,1.7536,0,0,0-1.377-.55664q-1.28979,0-3.16406,1.75781a24.30734,24.30734,0,0,0-3.69141,4.57032,35.06946,35.06946,0,0,0-3.19335,6.35742,26.86406,26.86406,0,0,0-1.72852,7.11914v17.51953q0,.87891-.0293,1.78711a4.413,4.413,0,0,1-.35156,1.64062,3.03857,3.03857,0,0,1-.99609,1.23047,3.28,3.28,0,0,1-1.96289.49805,9.74623,9.74623,0,0,1-1.9043-.20508,5.28515,5.28515,0,0,1-1.875-.76172,4.2912,4.2912,0,0,1-1.40625-1.582,5.707,5.707,0,0,1-.55664-2.72461Z"/><path class="e75afa49-3193-49a5-a474-7c55c5466bd9" d="M544.5918,200.36816a4.3318,4.3318,0,0,0,3.13476-1.28906,11.87882,11.87882,0,0,0,2.28516-3.22265,22.69494,22.69494,0,0,0,1.582-4.18946q.61524-2.25439,1.02539-4.248a5.80464,5.80464,0,0,1,1.20117-2.72461,2.33964,2.33964,0,0,1,1.72852-.84961,2.78474,2.78474,0,0,1,1.43555.43945,5.68758,5.68758,0,0,1,1.34765,1.14258,6.04612,6.04612,0,0,1,.99609,1.582,4.40644,4.40644,0,0,1,.38086,1.75781v.293a1.895,1.895,0,0,1-.11718.52734,50.18768,50.18768,0,0,1-2.08008,6.26954,26.77044,26.77044,0,0,1-3.36914,6.03515,18.10013,18.10013,0,0,1-4.95117,4.57031,12.49085,12.49085,0,0,1-6.76758,1.81641,10.85605,10.85605,0,0,1-5.50781-1.34766,10.11736,10.11736,0,0,1-3.69141-3.57421,16.7685,16.7685,0,0,1-4.36523,3.48632,11.91894,11.91894,0,0,1-5.94727,1.43555,13.05561,13.05561,0,0,1-6.18164-1.40625,13.23362,13.23362,0,0,1-4.48242-3.83789,16.97542,16.97542,0,0,1-2.72461-5.74219,26.78861,26.78861,0,0,1-.90821-7.11914,35.85782,35.85782,0,0,1,2.40235-13.47656,31.71231,31.71231,0,0,1,6.38672-10.166,27.72976,27.72976,0,0,1,9.11132-6.416,26.424,26.424,0,0,1,10.63477-2.22656,5.79269,5.79269,0,0,1,3.98438,1.34765,4.6812,4.6812,0,0,1,1.52343,3.69141,5.02678,5.02678,0,0,1-.32226,2.13867,1.23148,1.23148,0,0,1-1.20117.61523,12.68477,12.68477,0,0,1-1.69922-.11718,13.745,13.745,0,0,0-1.81641-.11719,17.58632,17.58632,0,0,0-6.91406,1.49414,18.45879,18.45879,0,0,0-6.35742,4.57031,24.07147,24.07147,0,0,0-4.65821,7.793,31.189,31.189,0,0,0-1.8164,11.2207q0,4.74611,1.8164,7.29493a5.788,5.788,0,0,0,4.98047,2.54882,5.26172,5.26172,0,0,0,4.10156-1.8457,14.59156,14.59156,0,0,0,2.63672-4.36523V175.6416a10.142,10.142,0,0,0-.08789-1.46484c-.05859-.38965-.11719-.72266-.17578-.9961-.05859-.27246-.1084-.51757-.14648-.73242a3.33833,3.33833,0,0,1-.0586-.61523,1.68928,1.68928,0,0,1,.90821-1.49414,4.12156,4.12156,0,0,1,2.19726-.55664,6.91674,6.91674,0,0,1,4.7461,1.55273,4.80193,4.80193,0,0,1,1.75781,3.7207v19.80469a8.24594,8.24594,0,0,0,.23437,1.96289,6.308,6.308,0,0,0,.70313,1.75781,3.76894,3.76894,0,0,0,1.25976,1.28907A3.39053,3.39053,0,0,0,544.5918,200.36816Z"/><path class="e75afa49-3193-49a5-a474-7c55c5466bd9" d="M553.14648,164.97754a8.22612,8.22612,0,0,0-.26367-2.46094,4.31509,4.31509,0,0,1-.26367-1.40625,1.64213,1.64213,0,0,1,.9375-1.43555,4.2771,4.2771,0,0,1,2.22656-.55664A6.8061,6.8061,0,0,1,560.5,160.6709a4.83794,4.83794,0,0,1,1.72852,3.7207v5.39063a41.26352,41.26352,0,0,1,2.666-4.6875A22.46286,22.46286,0,0,1,568,161.31543a13.55951,13.55951,0,0,1,3.57422-2.51953,9.46547,9.46547,0,0,1,4.13086-.9082A9.77509,9.77509,0,0,1,580.627,159.001a8.62872,8.62872,0,0,1,3.04688,2.87109,11.58465,11.58465,0,0,1,1.55273,3.92578,21.21381,21.21381,0,0,1,.43946,4.21875v24.84375c0,.27344.01855.71289.05859,1.31836a7.76148,7.76148,0,0,0,.35156,1.8457,4.48062,4.48062,0,0,0,.90821,1.64063,2.24594,2.24594,0,0,0,1.7871.70312,4.33183,4.33183,0,0,0,3.13477-1.28906,11.87882,11.87882,0,0,0,2.28516-3.22265,22.69494,22.69494,0,0,0,1.582-4.18946q.61522-2.25439,1.02539-4.248a5.27692,5.27692,0,0,1,1.17187-2.72461,2.38019,2.38019,0,0,1,1.69922-.84961,2.93745,2.93745,0,0,1,1.46485.43945,5.45253,5.45253,0,0,1,1.37695,1.14258,6.04612,6.04612,0,0,1,.99609,1.582,4.38978,4.38978,0,0,1,.38086,1.75781v.293a1.85958,1.85958,0,0,1-.11719.52734,50.02721,50.02721,0,0,1-2.08007,6.26954,26.13246,26.13246,0,0,1-3.39844,6.03515,18.69162,18.69162,0,0,1-4.95117,4.57031,12.34489,12.34489,0,0,1-6.73828,1.81641,9.50041,9.50041,0,0,1-4.24805-.9082,9.95486,9.95486,0,0,1-3.16406-2.43164,10.28777,10.28777,0,0,1-1.99219-3.57422,13.774,13.774,0,0,1-.67383-4.33594v-24.375q0-1.40625-.05859-2.63672a9.82136,9.82136,0,0,0-.32227-2.168,3.73936,3.73936,0,0,0-.76172-1.49414,1.75428,1.75428,0,0,0-1.37695-.55664q-1.29053,0-3.16406,1.75781a24.26876,24.26876,0,0,0-3.69141,4.57032,35.00628,35.00628,0,0,0-3.19336,6.35742,26.84548,26.84548,0,0,0-1.72851,7.11914v17.51953q0,.87891-.0293,1.78711a4.43262,4.43262,0,0,1-.35156,1.64062,3.04663,3.04663,0,0,1-.9961,1.23047,3.282,3.282,0,0,1-1.96289.49805,9.74224,9.74224,0,0,1-1.90429-.20508,5.27764,5.27764,0,0,1-1.875-.76172,4.28277,4.28277,0,0,1-1.40626-1.582,5.70123,5.70123,0,0,1-.55664-2.72461Z"/><path class="e75afa49-3193-49a5-a474-7c55c5466bd9" d="M596.44727,130.99316a8.24017,8.24017,0,0,0-.20508-2.05078,7.883,7.883,0,0,0-.41016-1.20117,3.82708,3.82708,0,0,0-.41015-.70312.88517.88517,0,0,1-.20508-.55664.68862.68862,0,0,1,.35156-.58594,3.55162,3.55162,0,0,1,.9375-.41016,7.92247,7.92247,0,0,1,1.25976-.26367,10.16687,10.16687,0,0,1,1.31836-.08789,6.80441,6.80441,0,0,1,4.7168,1.55273,4.838,4.838,0,0,1,1.72852,3.72071v37.4414q1.46337-1.99073,3.07617-3.77929a26.79257,26.79257,0,0,1,3.36914-3.16407,16.63881,16.63881,0,0,1,3.66211-2.19726,9.80912,9.80912,0,0,1,12.07031,3.16406,12.36885,12.36885,0,0,1,1.93359,4.13086,19.34753,19.34753,0,0,1-.498,11.30859,24.51994,24.51994,0,0,1-2.8125,5.47852,28.37526,28.37526,0,0,1-3.7207,4.39453,34.63082,34.63082,0,0,1-3.8379,3.22266,21.44923,21.44923,0,0,0,1.14258,3.7207,14.35943,14.35943,0,0,0,1.78711,3.19336,8.44126,8.44126,0,0,0,2.43164,2.22656,5.99476,5.99476,0,0,0,3.13477.82031,6.53116,6.53116,0,0,0,3.83789-1.25976,13.51274,13.51274,0,0,0,3.16406-3.16406,20.50816,20.50816,0,0,0,2.31445-4.16016,23.53794,23.53794,0,0,0,1.34766-4.248,5.55,5.55,0,0,1,1.084-2.63672,2.47417,2.47417,0,0,1,1.582-.9082,2.76868,2.76868,0,0,1,1.72851.43945,5.39782,5.39782,0,0,1,1.52344,1.377,6.04548,6.04548,0,0,1,.9668,1.90429,3.69272,3.69272,0,0,1,.08789,1.99219,55.3542,55.3542,0,0,1-2.34375,5.625,29.72652,29.72652,0,0,1-3.86719,6.09375,22.61151,22.61151,0,0,1-5.50781,4.86328,13.35682,13.35682,0,0,1-7.26563,1.99219,11.85478,11.85478,0,0,1-6.416-1.81641,18.47012,18.47012,0,0,1-4.98047-4.57031,21.26845,21.26845,0,0,1-3.19336-6.03515,19.50485,19.50485,0,0,1-1.11328-6.26954,2.968,2.968,0,0,1,.82031-1.90429,22.93144,22.93144,0,0,1,2.08008-2.10938q1.25976-1.14258,2.69531-2.54883a23.98617,23.98617,0,0,0,2.69531-3.16406,16.92665,16.92665,0,0,0,2.08008-3.95508,14.07366,14.07366,0,0,0,.82031-4.95117,5.78194,5.78194,0,0,0-1.084-3.63281,3.36465,3.36465,0,0,0-2.7832-1.40625,5.69076,5.69076,0,0,0-2.54883.791,11.21973,11.21973,0,0,0-3.13477,2.72461,27.112,27.112,0,0,0-3.28125,5.127,46.47794,46.47794,0,0,0-3.04687,7.93945v20.625q0,.87891-.0293,1.78711a4.43262,4.43262,0,0,1-.35156,1.64062,3.0386,3.0386,0,0,1-.9961,1.23047,3.28,3.28,0,0,1-1.96289.49805,9.75011,9.75011,0,0,1-1.90429-.20508,5.27779,5.27779,0,0,1-1.875-.76172,4.28266,4.28266,0,0,1-1.40625-1.582,5.70123,5.70123,0,0,1-.55664-2.72461Z"/></g><g class="fccfe918-98bb-46fa-8c0d-f88a153aabbb"><path class="e75afa49-3193-49a5-a474-7c55c5466bd9" d="M516.67529,310.52441v3.63282q1.69849-.29444,3.311-.41016,1.60986-.11865,3.01758-.23437a2.9464,2.9464,0,0,1,2.13867.58593,2.8014,2.8014,0,0,1,.9082,1.69922,5.76638,5.76638,0,0,1-.11719,2.28516,8.30465,8.30465,0,0,1-.9375,2.31445,7.196,7.196,0,0,1-1.55273,1.8457,3.004,3.004,0,0,1-1.96289.76172q-1.34913,0-2.54883.0586-1.20264.05712-2.37353.17578a98.68622,98.68622,0,0,1-1.14258,10.40039,36.29886,36.29886,0,0,1-2.78321,9.375,18.31273,18.31273,0,0,1-5.21484,6.79687,13.25053,13.25053,0,0,1-8.49609,2.60743,13.87949,13.87949,0,0,1-5.59571-1.084,12.50446,12.50446,0,0,1-4.248-2.98828,13.14489,13.14489,0,0,1-2.69532-4.48242,16.34058,16.34058,0,0,1-.9375-5.625,16.91523,16.91523,0,0,1,1.875-8.08594,22.13669,22.13669,0,0,1,4.92188-6.21094,29.17506,29.17506,0,0,1,6.97266-4.541,56.87842,56.87842,0,0,1,8.08593-3.07617V298.39551a61.05785,61.05785,0,0,1-3.98437,5.83008,33.51926,33.51926,0,0,1-4.42383,4.74609,20.259,20.259,0,0,1-4.77539,3.16406,11.84946,11.84946,0,0,1-5.03906,1.14258,7.90241,7.90241,0,0,1-2.72461-.52734,7.26749,7.26749,0,0,1-2.63672-1.72852,9.29431,9.29431,0,0,1-1.99219-3.19336,13.58037,13.58037,0,0,1-.791-4.98047V235.29a24.56908,24.56908,0,0,0-7.64649,2.28516,19.78585,19.78585,0,0,0-6.26953,4.80468,22.66707,22.66707,0,0,0-4.21875,7.38282,29.656,29.656,0,0,0-1.55273,10.01953,25.726,25.726,0,0,0,.76171,6.5332,23.69557,23.69557,0,0,0,1.81641,4.92187,13.9802,13.9802,0,0,0,2.10938,3.13477q1.05468,1.11329,1.64062,1.11328a2.199,2.199,0,0,0,.99609-.23437,2.0898,2.0898,0,0,1,.9375-.23438q.93678,0,.9375,1.46485a8.07175,8.07175,0,0,1-.84961,3.60351,8.53136,8.53136,0,0,1-2.13867,2.8125,6.121,6.121,0,0,1-2.8125,1.37695,3.47747,3.47747,0,0,1-2.8125-.64453,16.31241,16.31241,0,0,1-3.36914-3.22265,26.18511,26.18511,0,0,1-3.28125-5.24414,35.684,35.684,0,0,1-2.46094-6.94336,34.74643,34.74643,0,0,1-.96679-8.4375,38.92789,38.92789,0,0,1,1.52344-11.33789,32.06366,32.06366,0,0,1,4.07226-8.75977,27.76193,27.76193,0,0,1,5.94727-6.38672,33.61571,33.61571,0,0,1,7.14843-4.27734,35.49632,35.49632,0,0,1,7.61719-2.37305,39.703,39.703,0,0,1,7.38281-.73242,4.52543,4.52543,0,0,1,1.81641.38086,4.66733,4.66733,0,0,1,1.52344,1.05469,5.51779,5.51779,0,0,1,1.05469,1.61132,4.92414,4.92414,0,0,1,.41015,1.99219v71.19141q0,1.17333.38086,1.43554a1.29386,1.29386,0,0,0,.73242.26368,4.40845,4.40845,0,0,0,2.40235-1.25977,28.27007,28.27007,0,0,0,3.31054-3.33984,49.63185,49.63185,0,0,0,3.60352-4.80469,52.62254,52.62254,0,0,0,3.28125-5.6543,41.21469,41.21469,0,0,0,2.40234-5.85937,18.12089,18.12089,0,0,0,.9375-5.50781V231.833a9.22524,9.22524,0,0,0-.23437-2.46094,4.78162,4.78162,0,0,1-.23438-1.40625,1.71215,1.71215,0,0,1,.90821-1.46484,3.9727,3.9727,0,0,1,2.19726-.58594,7.37984,7.37984,0,0,1,4.86328,1.55273,4.74247,4.74247,0,0,1,1.875,3.7793Zm-17.51953,32.63672a4.54308,4.54308,0,0,0,3.39844-1.46484,11.48093,11.48093,0,0,0,2.34375-3.95508,28.74392,28.74392,0,0,0,1.43555-5.74219q.49731-3.252.73242-6.82617a20.79008,20.79008,0,0,0-9.11133,5.06836,10.79356,10.79356,0,0,0-3.13477,7.76367,5.27774,5.27774,0,0,0,1.25977,3.95508A4.29371,4.29371,0,0,0,499.15576,343.16113Z"/><path class="e75afa49-3193-49a5-a474-7c55c5466bd9" d="M572.22266,290.13379a1.75384,1.75384,0,0,1,.791-1.17188,4.082,4.082,0,0,1,1.55274-.64453,4.88651,4.88651,0,0,1,1.8457,0,3.59836,3.59836,0,0,1,1.69922.791,3.43867,3.43867,0,0,1,1.05469,1.69922,5.48206,5.48206,0,0,1-.0879,2.7832,16.34527,16.34527,0,0,1-1.72851,4.59961,14.88193,14.88193,0,0,1-3.01758,3.7793,13.44453,13.44453,0,0,1-4.27734,2.57812,15.374,15.374,0,0,1-5.50781.9375,25.33237,25.33237,0,0,1-3.07618-.17578,13.31643,13.31643,0,0,1-2.7832-.64453,18.59418,18.59418,0,0,1-5.74219,6.24023,15.15077,15.15077,0,0,1-8.67187,2.37305,16.18809,16.18809,0,0,1-7.85156-1.78711,15.8669,15.8669,0,0,1-5.44922-4.86328,21.29158,21.29158,0,0,1-3.19336-7.11914,34.63161,34.63161,0,0,1-1.02539-8.55469,41.75055,41.75055,0,0,1,1.55273-11.86523,43.59508,43.59508,0,0,1,3.60352-8.90625,23.97475,23.97475,0,0,1,4.07226-5.59571q2.02149-1.93359,3.01758-1.93359a2.9,2.9,0,0,1,2.13867,1.02539,6.20945,6.20945,0,0,1,1.40625,2.40234,6.14413,6.14413,0,0,1,.23438,2.78321,2.98814,2.98814,0,0,1-1.377,2.168q-.70312,1.11327-1.66992,2.57812a19.30151,19.30151,0,0,0-1.8164,3.66211,30.22333,30.22333,0,0,0-1.43555,5.36133,42.44429,42.44429,0,0,0-.58594,7.61719,28.61571,28.61571,0,0,0,.67383,6.62109,15.58366,15.58366,0,0,0,1.875,4.7168,8.52333,8.52333,0,0,0,2.75391,2.84179,6.29623,6.29623,0,0,0,3.31054.9375,6.85394,6.85394,0,0,0,4.24805-1.25976,10.75961,10.75961,0,0,0,2.8418-3.31055,23.05764,23.05764,0,0,1-6.416-9.22851,32.80741,32.80741,0,0,1-2.19726-12.09961,22.77918,22.77918,0,0,1,.61523-5.36133A15.15973,15.15973,0,0,1,545.416,269.626a9.45112,9.45112,0,0,1,3.01757-3.07618,7.7503,7.7503,0,0,1,4.21875-1.14257,6.22059,6.22059,0,0,1,3.98438,1.52343,13.23548,13.23548,0,0,1,3.28125,4.21875,25.21863,25.21863,0,0,1,2.19726,6.38672,38.314,38.314,0,0,1,.791,8.02735,53.51865,53.51865,0,0,1-.41016,6.62109,41.3313,41.3313,0,0,1-1.28906,6.32813,4.16441,4.16441,0,0,0,1.20117.26367c.37012.02051.77051.02929,1.20118.02929a7.77432,7.77432,0,0,0,5.97656-2.57812,9.36317,9.36317,0,0,0,1.69922-2.75391A15.7488,15.7488,0,0,0,572.22266,290.13379ZM549.3125,279.001a23.23577,23.23577,0,0,0,1.25977,7.67578,22.50073,22.50073,0,0,0,3.31054,6.32812,45.342,45.342,0,0,0,.35157-5.50781q0-3.04541-.0879-5.6543a33.77517,33.77517,0,0,0-.41015-4.48242,10.58894,10.58894,0,0,0-.87891-2.959,1.67682,1.67682,0,0,0-1.49414-1.084Q549.311,273.31738,549.3125,279.001Z"/><path class="e75afa49-3193-49a5-a474-7c55c5466bd9" d="M605.26953,313.27832a10.25523,10.25523,0,0,1-3.7207-.64453,9.30358,9.30358,0,0,1-2.92969-1.78711,9.7212,9.7212,0,0,1-2.08008-2.69531,10.80223,10.80223,0,0,1-1.11328-3.36914,21.97126,21.97126,0,0,1-5.09766,6.21093,10.57085,10.57085,0,0,1-6.91406,2.40235,11.15809,11.15809,0,0,1-9.375-4.7168,16.2342,16.2342,0,0,1-2.49023-5.44922,27.64546,27.64546,0,0,1-.84961-7.11914,68.5441,68.5441,0,0,1,.67383-9.55078q.67236-4.80322,1.49414-8.67187.936-4.51173,2.168-8.73047a8.90585,8.90585,0,0,0,.43945-1.55274,3.13476,3.13476,0,0,1,.67383-1.43554,3.73339,3.73339,0,0,1,1.66992-1.05469,11.30013,11.30013,0,0,1,3.54492-.41016q2.2251,0,2.8711.791a2.30612,2.30612,0,0,1,.498,1.8457,7.06,7.06,0,0,1-.70312,2.168,9.38781,9.38781,0,0,0-.73242,1.81641q-.82179,3.33984-1.46485,6.09375-.646,2.75536-1.084,5.5371-.43946,2.7832-.67383,5.80079-.23584,3.019-.23438,6.76757,0,4.92188,1.43555,7.44141a4.47467,4.47467,0,0,0,4.07227,2.51953,5.04162,5.04162,0,0,0,3.36914-1.34765,13.32133,13.32133,0,0,0,2.8125-3.60352,28.733,28.733,0,0,0,2.19726-5.15625,42.43456,42.43456,0,0,0,1.46485-6.06445V269.97754a8.24006,8.24006,0,0,0-.20508-2.05078,7.88222,7.88222,0,0,0-.41016-1.20117,3.8272,3.8272,0,0,0-.41015-.70313.96764.96764,0,0,1-.20508-.61523.65136.65136,0,0,1,.35156-.52735,3.55178,3.55178,0,0,1,.9375-.41015,7.92345,7.92345,0,0,1,1.25977-.26368,10.1666,10.1666,0,0,1,1.31835-.08789,6.8061,6.8061,0,0,1,4.7168,1.55274,4.83794,4.83794,0,0,1,1.72852,3.7207v30.46875c0,.27344.01855.71289.05859,1.31836a7.76148,7.76148,0,0,0,.35156,1.8457,4.2628,4.2628,0,0,0,.9375,1.64063,2.33726,2.33726,0,0,0,1.81641.70312,4.33184,4.33184,0,0,0,3.13477-1.28906,11.879,11.879,0,0,0,2.28515-3.22265,22.69423,22.69423,0,0,0,1.582-4.18946q.61524-2.25439,1.02539-4.248a5.277,5.277,0,0,1,1.17188-2.72461,2.38019,2.38019,0,0,1,1.69922-.84961,2.93741,2.93741,0,0,1,1.46484.43945,5.45218,5.45218,0,0,1,1.37695,1.14258,6.04615,6.04615,0,0,1,.9961,1.582,4.40644,4.40644,0,0,1,.38086,1.75781v.293a1.89506,1.89506,0,0,1-.11719.52734,58.42926,58.42926,0,0,1-2.13867,6.26954,26.77044,26.77044,0,0,1-3.36914,6.03515,18.28354,18.28354,0,0,1-4.92188,4.57031A12.34487,12.34487,0,0,1,605.26953,313.27832Z"/></g></g></svg>