<?xml version="1.0" encoding="utf-8"?>
<!-- Generator: Adobe Illustrator 23.0.0, SVG Export Plug-In . SVG Version: 6.00 Build 0)  -->
<svg version="1.1" id="Layer_1" xmlns="http://www.w3.org/2000/svg" xmlns:xlink="http://www.w3.org/1999/xlink" x="0px" y="0px"
	 viewBox="0 0 362.7 155" style="enable-background:new 0 0 362.7 155;" xml:space="preserve">
<style type="text/css">
	.st0{fill:none;stroke:#000000;stroke-width:2;stroke-miterlimit:10;}
	.st1{fill:none;}
	.st2{enable-background:new    ;}
</style>
<line class="st0" x1="0.8" y1="64.7" x2="100.9" y2="83"/>
<line class="st0" x1="0" y1="98.6" x2="101.7" y2="97.5"/>
<line class="st0" x1="4.1" y1="135.3" x2="103.4" y2="113.1"/>
<line class="st0" x1="361.9" y1="64.7" x2="261.9" y2="83"/>
<line class="st0" x1="362.7" y1="98.6" x2="261" y2="97.5"/>
<line class="st0" x1="358.6" y1="135.3" x2="259.3" y2="113.1"/>
<line class="st0" x1="92.8" y1="14.2" x2="137.8" y2="36.6"/>
<line class="st0" x1="93.6" y1="15.1" x2="100" y2="60.1"/>
<line class="st0" x1="270" y1="13.8" x2="225" y2="36.1"/>
<line class="st0" x1="269.1" y1="14.7" x2="262.7" y2="59.6"/>
<rect x="103" y="68.8" class="st1" width="156" height="38.8"/>
<g class="st2">
	<path d="M148.2,82.8c-0.6,0-1.1-0.2-1.6-0.6c-0.4-0.4-0.6-1-0.6-1.9c0-0.2,0-0.4,0-0.5c0-0.2,0.1-0.4,0.1-0.5
		c0-0.2,0.1-0.3,0.2-0.4s0.2-0.1,0.2-0.1c0.1,0,0.2,0,0.2,0.1s0.2,0.1,0.3,0.2c0.1,0.1,0.3,0.1,0.5,0.2c0.2,0,0.5,0.1,0.9,0.1
		c0.9,0,1.8-0.1,2.8-0.4c0.9-0.3,1.8-0.7,2.6-1.2c0.8-0.5,1.4-1.2,1.9-1.9c0.5-0.7,0.7-1.6,0.7-2.5c0-0.3-0.1-0.7-0.2-1
		c-0.1-0.3-0.3-0.6-0.5-0.9c-0.2-0.3-0.5-0.5-0.9-0.6c-0.4-0.2-0.8-0.2-1.2-0.2c-1.3,0-2.5,0.3-3.6,0.9c-1.1,0.6-2.1,1.3-2.9,2.3
		c-0.9,1-1.6,2.1-2.3,3.4s-1.2,2.6-1.6,4c-0.4,1.4-0.8,2.8-1,4.3c-0.2,1.4-0.3,2.8-0.3,4.1c0,1.6,0.1,3,0.3,4.3
		c0.2,1.3,0.5,2.5,1,3.4c0.4,1,1,1.7,1.8,2.3c0.7,0.5,1.6,0.8,2.7,0.8c1,0,1.8-0.2,2.6-0.7c0.7-0.5,1.4-1.2,2-2c0.6-0.8,1-1.8,1.4-3
		c0.4-1.1,0.7-2.3,1-3.6c0.3-1.3,0.5-2.6,0.8-4c0.2-1.4,0.4-2.7,0.6-4c0-0.3,0.3-0.6,0.7-0.7c0.4-0.2,0.9-0.3,1.3-0.3
		c0.2,0,0.4,0,0.6,0.1c0.2,0,0.4,0.1,0.5,0.2c0.2,0.1,0.3,0.2,0.3,0.4c0.1,0.2,0.1,0.4,0,0.6c-0.1,0.7-0.3,1.7-0.4,3.1
		c-0.1,1.4-0.2,3.1-0.2,5.1c0,1.6,0,3.1,0,4.2c0,1.2,0.1,2.2,0.1,3.1c0,0.9,0.1,1.6,0.1,2.2c0,0.6,0.1,1.1,0.1,1.5
		c0.1,0.1,0.1,0.3,0.1,0.3c0,0.2-0.1,0.3-0.2,0.5c-0.2,0.1-0.4,0.3-0.6,0.4c-0.2,0.1-0.5,0.2-0.8,0.3c-0.3,0.1-0.6,0.1-0.9,0.1
		c-0.4,0-0.8-0.1-1-0.3c-0.2-0.2-0.4-0.5-0.5-0.9c-0.1-0.4-0.2-1-0.2-1.7c0-0.7-0.1-1.5-0.1-2.6c-0.4,0.8-0.8,1.5-1.4,2.2
		c-0.6,0.7-1.2,1.3-1.9,1.8c-0.7,0.5-1.4,0.9-2.2,1.2s-1.6,0.4-2.5,0.4c-1.4,0-2.6-0.3-3.7-0.8c-1.1-0.5-2.1-1.4-2.9-2.5
		c-0.8-1.2-1.4-2.7-1.9-4.5c-0.4-1.9-0.7-4.1-0.7-6.8c0-1.8,0.2-3.7,0.5-5.5c0.3-1.8,0.9-3.6,1.5-5.3c0.7-1.7,1.5-3.3,2.4-4.7
		s2-2.7,3.2-3.8c1.2-1.1,2.5-1.9,3.9-2.5c1.4-0.6,2.9-0.9,4.5-0.9c1,0,1.9,0.2,2.7,0.5c0.8,0.3,1.5,0.8,2,1.4c0.6,0.6,1,1.3,1.3,2
		c0.3,0.8,0.4,1.6,0.4,2.5c0,1.4-0.4,2.8-1,4c-0.7,1.2-1.6,2.3-2.8,3.1c-1.1,0.9-2.4,1.6-3.9,2.1S149.7,82.8,148.2,82.8z"/>
	<path d="M168.5,89.3c0-1,0.1-1.9,0.3-2.6c0.2-0.7,0.5-1.4,0.9-1.8c0.4-0.5,0.8-0.8,1.4-1.1c0.5-0.2,1.1-0.3,1.6-0.3
		c0.7,0,1.3,0.2,2,0.5c0.6,0.3,1.2,0.8,1.7,1.5c0.5,0.7,0.9,1.5,1.2,2.5c0.3,1,0.5,2.2,0.5,3.6c0,1-0.1,1.9-0.2,2.9
		c-0.1,1-0.3,1.9-0.6,2.8c0.2,0.1,0.4,0.1,0.5,0.1c0.2,0,0.3,0,0.5,0c0.5,0,1-0.1,1.4-0.3s0.8-0.5,1.1-0.8c0.3-0.3,0.5-0.7,0.7-1.1
		c0.2-0.4,0.3-0.9,0.4-1.4c0-0.2,0.1-0.4,0.3-0.5c0.2-0.1,0.4-0.2,0.6-0.3s0.5,0,0.8,0s0.5,0.2,0.7,0.3c0.2,0.2,0.3,0.4,0.4,0.7
		c0.1,0.3,0.1,0.7,0,1.2c-0.1,0.7-0.4,1.3-0.7,1.9c-0.3,0.6-0.8,1.1-1.3,1.6c-0.5,0.5-1.1,0.8-1.8,1.1c-0.7,0.3-1.4,0.4-2.3,0.4
		c-0.5,0-0.9,0-1.3-0.1c-0.4,0-0.8-0.1-1.2-0.3c-0.6,1.1-1.4,1.9-2.4,2.6c-1,0.7-2.2,1-3.7,1c-1.2,0-2.2-0.2-3-0.6
		c-0.9-0.4-1.6-1-2.2-1.7c-0.6-0.7-1-1.6-1.3-2.6c-0.3-1-0.5-2.1-0.5-3.4V71.3c0-0.4,0-0.6-0.1-0.9c-0.1-0.2-0.1-0.4-0.2-0.5
		c-0.1-0.1-0.1-0.2-0.2-0.3c-0.1-0.1-0.1-0.1-0.1-0.2c0-0.1,0-0.2,0.1-0.2c0.1-0.1,0.2-0.1,0.4-0.2c0.2,0,0.3-0.1,0.5-0.1
		c0.2,0,0.4,0,0.5,0c0.8,0,1.5,0.2,2,0.6c0.5,0.4,0.7,0.9,0.7,1.6v23.4c0,0.8,0.1,1.6,0.2,2.3c0.1,0.7,0.4,1.3,0.7,1.8
		c0.3,0.5,0.7,0.9,1.1,1.2c0.4,0.3,1,0.4,1.6,0.4c0.6,0,1.1-0.2,1.6-0.5c0.4-0.3,0.8-0.7,1.1-1.3c-0.7-0.5-1.4-1.1-1.9-1.8
		c-0.6-0.7-1-1.4-1.4-2.2c-0.4-0.8-0.7-1.6-0.9-2.5C168.6,91.1,168.5,90.2,168.5,89.3z M171.6,89.1c0,1.2,0.2,2.3,0.6,3.4
		c0.4,1.1,1,2,1.7,2.8c0.1-0.6,0.2-1.2,0.2-1.7c0-0.6,0-1.1,0-1.6c0-1.7-0.2-3-0.5-3.9c-0.4-0.9-0.8-1.4-1.2-1.4
		c-0.3,0-0.6,0.2-0.7,0.6C171.6,87.9,171.6,88.4,171.6,89.1z"/>
	<path d="M200.2,93.8c0-0.2,0.1-0.4,0.3-0.5c0.2-0.1,0.4-0.2,0.6-0.3s0.5,0,0.8,0s0.5,0.2,0.7,0.3c0.2,0.2,0.3,0.4,0.4,0.7
		c0.1,0.3,0.1,0.7,0,1.2c-0.1,0.7-0.4,1.3-0.7,1.9c-0.3,0.6-0.8,1.1-1.3,1.6c-0.5,0.5-1.1,0.8-1.8,1.1c-0.7,0.3-1.4,0.4-2.3,0.4
		c-0.5,0-0.9,0-1.3-0.1c-0.4,0-0.8-0.1-1.2-0.3c-0.6,1.1-1.4,1.9-2.4,2.6c-1,0.7-2.2,1-3.6,1c-1.3,0-2.4-0.2-3.3-0.7
		c-0.9-0.5-1.7-1.2-2.3-2c-0.6-0.9-1-1.8-1.3-3c-0.3-1.1-0.4-2.3-0.4-3.6c0-1.8,0.2-3.5,0.6-4.9c0.4-1.5,0.9-2.7,1.5-3.7
		c0.6-1,1.1-1.8,1.7-2.3s1-0.8,1.3-0.8c0.3,0,0.6,0.1,0.9,0.4c0.3,0.3,0.5,0.6,0.6,1c0.1,0.4,0.2,0.8,0.1,1.2
		c-0.1,0.4-0.2,0.7-0.6,0.9c-0.2,0.3-0.4,0.7-0.7,1.1c-0.3,0.4-0.5,0.9-0.8,1.5c-0.2,0.6-0.4,1.4-0.6,2.2s-0.2,1.9-0.2,3.2
		c0,1.1,0.1,2,0.3,2.8c0.2,0.8,0.4,1.4,0.8,2c0.3,0.5,0.7,0.9,1.1,1.2c0.4,0.3,0.9,0.4,1.4,0.4c0.7,0,1.3-0.2,1.8-0.5
		c0.5-0.3,0.9-0.8,1.2-1.4c-1.2-1-2.1-2.3-2.7-3.8c-0.6-1.6-0.9-3.2-0.9-5c0-0.8,0.1-1.5,0.3-2.2c0.2-0.7,0.4-1.3,0.8-1.9
		c0.3-0.5,0.8-1,1.3-1.3c0.5-0.3,1.1-0.5,1.8-0.5c0.6,0,1.1,0.2,1.7,0.6c0.5,0.4,1,1,1.4,1.8c0.4,0.7,0.7,1.6,0.9,2.7
		s0.3,2.1,0.3,3.3c0,0.9-0.1,1.8-0.2,2.8c-0.1,0.9-0.3,1.8-0.5,2.6c0.2,0.1,0.3,0.1,0.5,0.1c0.2,0,0.3,0,0.5,0c0.5,0,1-0.1,1.4-0.3
		s0.8-0.5,1.1-0.8c0.3-0.3,0.5-0.7,0.7-1.1S200.1,94.3,200.2,93.8z M190.7,89.2c0,1.1,0.2,2.2,0.5,3.2c0.3,1,0.8,1.9,1.4,2.6
		c0.1-0.8,0.1-1.6,0.1-2.3c0-0.8,0-1.6,0-2.4c0-0.7-0.1-1.3-0.2-1.9c-0.1-0.5-0.2-0.9-0.4-1.2c-0.2-0.3-0.4-0.5-0.6-0.5
		C190.9,86.8,190.7,87.6,190.7,89.2z"/>
	<path d="M214,103.5c-0.6,0-1.1-0.1-1.5-0.3c-0.5-0.2-0.9-0.4-1.2-0.7c-0.4-0.3-0.6-0.7-0.9-1.1c-0.2-0.4-0.4-0.9-0.5-1.4
		c-0.6,1.1-1.3,1.9-2.1,2.6s-1.8,1-2.9,1c-0.8,0-1.6-0.2-2.2-0.5s-1.2-0.8-1.7-1.5c-0.5-0.6-0.8-1.4-1-2.3c-0.2-0.9-0.4-1.9-0.4-3
		c0-1.3,0.1-2.6,0.3-4c0.2-1.3,0.4-2.5,0.6-3.6c0.3-1.3,0.6-2.5,0.9-3.6c0.1-0.2,0.1-0.4,0.2-0.6c0-0.2,0.1-0.4,0.3-0.6
		c0.1-0.2,0.4-0.3,0.7-0.4c0.3-0.1,0.8-0.2,1.5-0.2c0.6,0,1,0.1,1.2,0.3c0.2,0.2,0.2,0.5,0.2,0.8c0,0.3-0.1,0.6-0.3,0.9
		c-0.2,0.3-0.3,0.6-0.3,0.8c-0.2,0.9-0.4,1.8-0.6,2.5c-0.2,0.8-0.3,1.5-0.5,2.3c-0.1,0.8-0.2,1.6-0.3,2.4c-0.1,0.8-0.1,1.8-0.1,2.8
		c0,1.4,0.2,2.4,0.6,3.1c0.4,0.7,1,1,1.7,1c0.5,0,1-0.2,1.4-0.6c0.4-0.4,0.8-0.9,1.2-1.5c0.3-0.6,0.7-1.3,0.9-2.1
		c0.3-0.8,0.5-1.6,0.6-2.5v-8.1c0-0.4,0-0.6-0.1-0.9c-0.1-0.2-0.1-0.4-0.2-0.5c-0.1-0.1-0.1-0.2-0.2-0.3c-0.1-0.1-0.1-0.2-0.1-0.3
		c0-0.1,0-0.2,0.1-0.2c0.1-0.1,0.2-0.1,0.4-0.2s0.3-0.1,0.5-0.1c0.2,0,0.4,0,0.5,0c0.8,0,1.5,0.2,2,0.6c0.5,0.4,0.7,0.9,0.7,1.6
		v12.7c0,0.1,0,0.3,0,0.5c0,0.3,0.1,0.5,0.1,0.8c0.1,0.3,0.2,0.5,0.4,0.7s0.4,0.3,0.8,0.3c0.5,0,0.9-0.2,1.3-0.5
		c0.4-0.4,0.7-0.8,1-1.3s0.5-1.1,0.7-1.7c0.2-0.6,0.3-1.2,0.4-1.8c0.1-0.5,0.3-0.9,0.5-1.1c0.2-0.2,0.5-0.4,0.7-0.4
		c0.2,0,0.4,0.1,0.6,0.2c0.2,0.1,0.4,0.3,0.6,0.5s0.3,0.4,0.4,0.7c0.1,0.2,0.2,0.5,0.2,0.7c0,0,0,0.1,0,0.1s0,0.1,0,0.2
		c-0.2,0.8-0.5,1.7-0.9,2.6c-0.4,0.9-0.8,1.8-1.4,2.5c-0.6,0.8-1.3,1.4-2.1,1.9C216,103.2,215.1,103.5,214,103.5z"/>
	<path d="M213.9,78.6c0.4,0,0.8,0.1,1.2,0.1c0.4,0,0.9,0.1,1.4,0.1c0.6,0,1.2,0,1.9,0v-8.5c0-0.4,0-0.6-0.1-0.9
		c-0.1-0.2-0.1-0.4-0.2-0.5c-0.1-0.1-0.1-0.2-0.2-0.3c-0.1-0.1-0.1-0.2-0.1-0.2c0-0.1,0-0.2,0.1-0.2c0.1-0.1,0.2-0.1,0.4-0.2
		s0.3-0.1,0.5-0.1c0.2,0,0.4,0,0.5,0c0.8,0,1.5,0.2,2,0.6c0.5,0.4,0.7,0.9,0.7,1.5v8.8c1.5,0,3.1,0,4.8,0c1.7,0,3.4-0.1,5.1-0.2
		c0.2-0.2,0.4-0.3,0.5-0.3c0.1,0.1,0.2,0.2,0.3,0.5c0,0.2,0,0.5,0,0.9c0,0.4-0.1,0.7-0.2,1c-0.1,0.3-0.2,0.6-0.4,0.9
		s-0.4,0.4-0.6,0.4c-2,0-3.8,0.1-5.3,0.1c-1.5,0-3,0-4.3,0v15.8c0,0.8,0.2,1.4,0.5,1.8c0.3,0.4,0.7,0.5,1.2,0.5
		c0.5,0,0.9-0.2,1.3-0.5c0.4-0.4,0.7-0.8,1-1.3s0.5-1.1,0.7-1.7c0.2-0.6,0.3-1.2,0.4-1.8c0.1-0.5,0.3-0.9,0.5-1.1
		c0.2-0.2,0.5-0.4,0.7-0.4c0.2,0,0.4,0.1,0.6,0.2c0.2,0.1,0.4,0.3,0.6,0.5s0.3,0.4,0.4,0.7c0.1,0.2,0.2,0.5,0.2,0.7c0,0,0,0.1,0,0.1
		s0,0.1,0,0.2c-0.2,0.8-0.5,1.7-0.9,2.6c-0.4,0.9-0.8,1.8-1.4,2.5c-0.6,0.8-1.3,1.4-2.1,1.9c-0.8,0.5-1.7,0.8-2.8,0.8
		c-0.7,0-1.3-0.1-1.8-0.3c-0.6-0.2-1-0.5-1.5-1c-0.4-0.4-0.7-1-1-1.7c-0.2-0.7-0.3-1.5-0.3-2.5V82c-0.6,0-1,0-1.5,0
		c-0.4,0-0.8,0-1.1,0c-0.3,0-0.6,0-0.9,0c-0.4,0-0.7-0.2-1-0.5c-0.3-0.4-0.5-0.7-0.6-1.2c-0.1-0.4-0.1-0.8,0-1.2
		C213.3,78.7,213.5,78.6,213.9,78.6z"/>
</g>
</svg>
