<?xml version="1.0" encoding="utf-8"?>
<!-- Generator: Adobe Illustrator 23.0.0, SVG Export Plug-In . SVG Version: 6.00 Build 0)  -->
<svg version="1.1" id="Layer_1" xmlns="http://www.w3.org/2000/svg" xmlns:xlink="http://www.w3.org/1999/xlink" x="0px" y="0px"
	 viewBox="0 0 362.7 162" style="enable-background:new 0 0 362.7 162;" xml:space="preserve">
<style type="text/css">
	.st0{fill:none;stroke:#000000;stroke-width:2;stroke-miterlimit:10;}
	.st1{fill:none;}
	.st2{enable-background:new    ;}
</style>
<line class="st0" x1="0.8" y1="59.7" x2="100.9" y2="78"/>
<line class="st0" x1="0" y1="93.6" x2="101.7" y2="92.5"/>
<line class="st0" x1="4.1" y1="130.3" x2="103.4" y2="108.1"/>
<line class="st0" x1="361.9" y1="59.7" x2="261.9" y2="78"/>
<line class="st0" x1="362.7" y1="93.6" x2="261" y2="92.5"/>
<line class="st0" x1="358.6" y1="130.3" x2="259.3" y2="108.1"/>
<line class="st0" x1="92.8" y1="9.2" x2="137.8" y2="31.6"/>
<line class="st0" x1="93.6" y1="10.1" x2="100" y2="55.1"/>
<line class="st0" x1="270" y1="8.8" x2="225" y2="31.1"/>
<line class="st0" x1="269.1" y1="9.7" x2="262.7" y2="54.6"/>
<rect x="102.5" y="51.8" class="st1" width="156" height="128.9"/>
<g class="st2">
	<path d="M143.3,64.3c0.6,0,1.3-0.1,2-0.3c0.7-0.2,1.4-0.5,2-0.9c0.7-0.4,1.3-0.8,1.9-1.4c0.6-0.5,1.1-1.1,1.6-1.7
		c0.5-0.6,0.8-1.3,1.1-2c0.3-0.7,0.4-1.4,0.4-2.1c0-0.3-0.1-0.6-0.2-0.9c-0.1-0.3-0.3-0.6-0.5-0.9c-0.2-0.3-0.5-0.5-0.9-0.7
		c-0.4-0.2-0.9-0.3-1.4-0.3c-1.1,0-2.2,0.3-3.2,0.8c-1,0.5-1.9,1.2-2.8,2.1c-0.9,0.9-1.6,1.9-2.4,3.1c-0.7,1.2-1.3,2.5-1.8,3.8
		c-0.5,1.4-0.9,2.7-1.1,4.2c-0.3,1.4-0.4,2.8-0.4,4.2c0,1.5,0.1,3,0.4,4.5c0.3,1.5,0.7,2.7,1.3,3.9s1.4,2,2.4,2.7c1,0.7,2.2,1,3.7,1
		c1.1,0,2-0.2,2.9-0.5c0.8-0.3,1.6-0.6,2.2-1c0.6-0.4,1.1-0.7,1.4-1c0.3-0.3,0.5-0.5,0.5-0.5c0.2-0.4,0.5-0.6,0.7-0.6
		c0.3-0.1,0.5,0,0.8,0.1c0.3,0.1,0.5,0.3,0.7,0.6c0.2,0.3,0.4,0.6,0.5,0.9c0.1,0.3,0.2,0.6,0.2,0.9c0,0.3-0.1,0.6-0.3,0.8
		c0,0-0.2,0.2-0.4,0.4c-0.2,0.2-0.5,0.5-0.9,0.8c-0.4,0.3-0.9,0.6-1.4,1c-0.6,0.3-1.2,0.7-1.9,1c-0.7,0.3-1.5,0.5-2.4,0.7
		c-0.9,0.2-1.8,0.3-2.8,0.3c-1.8,0-3.4-0.4-4.8-1.1c-1.4-0.7-2.6-1.8-3.6-3.2c-1-1.4-1.7-3-2.3-5c-0.5-2-0.8-4.1-0.8-6.5
		c0-1.6,0.2-3.3,0.5-5s0.8-3.4,1.5-5c0.7-1.6,1.5-3.2,2.4-4.6c0.9-1.4,2-2.7,3.2-3.8c1.2-1.1,2.5-1.9,4-2.6c1.4-0.6,3-0.9,4.7-0.9
		c0.9,0,1.7,0.1,2.5,0.4c0.8,0.3,1.5,0.7,2,1.2c0.6,0.6,1,1.2,1.3,2.1c0.3,0.8,0.5,1.8,0.5,2.9c0,1-0.2,2-0.6,3
		c-0.4,1-0.9,1.9-1.6,2.8c-0.7,0.9-1.4,1.7-2.3,2.4c-0.9,0.7-1.8,1.4-2.8,1.9c-1,0.5-2,0.9-3,1.2c-1,0.3-2,0.4-2.9,0.4
		c-0.6,0-1.1-0.2-1.6-0.6c-0.4-0.4-0.6-1-0.6-1.8c0-0.2,0-0.4,0-0.5c0-0.2,0.1-0.4,0.1-0.5c0-0.2,0.1-0.3,0.2-0.4s0.2-0.1,0.2-0.1
		c0.1,0,0.2,0,0.2,0.1s0.2,0.1,0.3,0.2c0.1,0.1,0.3,0.1,0.5,0.2C142.7,64.3,143,64.3,143.3,64.3z"/>
	<path d="M169.3,77.8c0.1-0.5,0.2-0.8,0.5-1.1c0.2-0.2,0.4-0.3,0.7-0.4c0.2,0,0.5,0,0.7,0.2c0.2,0.1,0.5,0.3,0.6,0.5
		c0.2,0.2,0.3,0.5,0.4,0.8c0.1,0.3,0.1,0.6,0,0.8c-0.2,0.7-0.6,1.4-1,2.3c-0.4,0.9-1,1.7-1.6,2.5c-0.7,0.8-1.4,1.5-2.3,2
		c-0.9,0.6-1.9,0.8-3,0.8c-1,0-1.8-0.2-2.5-0.5c-0.7-0.3-1.3-0.8-1.8-1.3c-0.5-0.6-0.9-1.3-1.1-2.1c-0.3-0.8-0.4-1.7-0.4-2.7V57.1
		c0-0.9,0.1-1.8,0.4-2.6c0.2-0.8,0.6-1.5,1-2c0.4-0.6,0.9-1,1.5-1.3c0.6-0.3,1.1-0.5,1.8-0.5c0.7,0,1.4,0.1,1.9,0.4
		c0.5,0.3,0.9,0.6,1.2,1.1c0.3,0.4,0.6,0.9,0.8,1.5c0.2,0.6,0.3,1.2,0.4,1.7c0.1,0.6,0.1,1.2,0.1,1.8c0,0.6,0,1.1,0,1.6
		c0,1.2-0.1,2.5-0.3,3.8c-0.2,1.3-0.5,2.7-0.9,4c-0.4,1.3-0.7,2.6-1.1,3.7c-0.4,1.2-0.8,2.3-1.2,3.2c-0.4,0.9-0.7,1.7-1,2.3
		c-0.3,0.6-0.5,0.9-0.6,1v2.9c0,1,0.2,1.8,0.6,2.5c0.4,0.6,1.1,1,2,1c0.6,0,1.1-0.2,1.6-0.5c0.5-0.3,0.9-0.8,1.3-1.3
		c0.4-0.5,0.7-1.1,1-1.7C169,79,169.2,78.4,169.3,77.8z M162.2,70.3c0.2-0.3,0.4-0.8,0.5-1.4c0.2-0.6,0.3-1.2,0.5-1.9
		c0.2-0.7,0.3-1.4,0.4-2.2c0.1-0.8,0.2-1.5,0.3-2.2s0.2-1.4,0.2-2.1c0.1-0.6,0.1-1.2,0.1-1.6c0-1.7-0.1-2.9-0.4-3.6
		c-0.2-0.8-0.6-1.2-1-1.2c-0.1,0-0.2,0.1-0.3,0.2c-0.1,0.1-0.2,0.3-0.2,0.5c-0.1,0.2-0.1,0.4-0.1,0.7c0,0.2,0,0.5,0,0.6V70.3z"/>
	<path d="M180.9,70.5c0,0.9-0.2,1.9-0.5,2.9s-0.8,1.9-1.4,2.8c-0.6,0.9-1.4,1.7-2.3,2.3c-0.9,0.7-2,1.2-3.2,1.6
		c0.2,0.4,0.4,0.8,0.6,1.2c0.3,0.4,0.6,0.7,1,1c0.4,0.3,0.8,0.5,1.3,0.7c0.5,0.2,1.1,0.2,1.7,0.2c1,0,1.8-0.2,2.5-0.5
		c0.7-0.4,1.3-0.9,1.8-1.5c0.5-0.6,0.9-1.3,1.2-2c0.3-0.7,0.5-1.5,0.7-2.3c0.1-0.6,0.3-0.9,0.7-1.1c0.3-0.2,0.7-0.2,1.1-0.1
		s0.7,0.3,1,0.6c0.3,0.3,0.4,0.7,0.3,1.1c-0.1,0.5-0.2,1.1-0.3,1.7c-0.2,0.7-0.4,1.3-0.7,2c-0.3,0.7-0.7,1.3-1.2,2
		c-0.5,0.6-1.1,1.2-1.8,1.7s-1.5,0.9-2.5,1.2c-0.9,0.3-2,0.5-3.2,0.5c-1.1,0-2.2-0.2-3.3-0.7c-1.1-0.4-2-1.1-2.8-1.9
		c-0.8-0.8-1.5-1.9-2-3.1c-0.5-1.2-0.7-2.6-0.7-4.2c0-1.6,0.2-3,0.7-4.4c0.4-1.4,1-2.5,1.7-3.5c0.7-1,1.5-1.8,2.4-2.3
		c0.9-0.6,1.8-0.8,2.8-0.8c0.7,0,1.3,0.1,1.9,0.4s1,0.6,1.4,1c0.4,0.4,0.7,1,0.9,1.6C180.8,69.1,180.9,69.8,180.9,70.5z M172.9,76.4
		c0,0.1,0,0.3,0,0.4c0,0.1,0,0.3,0,0.5c0.6-0.3,1.2-0.7,1.7-1.1c0.5-0.5,0.9-1,1.3-1.6c0.4-0.6,0.6-1.2,0.8-1.9
		c0.2-0.7,0.3-1.4,0.3-2.2c0-0.6-0.1-1-0.3-1.3c-0.2-0.3-0.4-0.5-0.8-0.5c-0.4,0-0.8,0.1-1.1,0.4c-0.3,0.3-0.6,0.6-0.8,1.1
		c-0.2,0.4-0.4,1-0.6,1.5c-0.2,0.6-0.3,1.1-0.4,1.7c-0.1,0.6-0.2,1.1-0.2,1.6C172.9,75.7,172.9,76.1,172.9,76.4z"/>
	<path d="M184.3,68.4c0-0.5,0-0.8-0.1-1c-0.1-0.2-0.1-0.4-0.1-0.6c0-0.2,0.1-0.4,0.4-0.6c0.3-0.2,0.6-0.2,0.9-0.2
		c0.8,0,1.5,0.2,2,0.6c0.5,0.4,0.7,0.9,0.7,1.6v13.5c0,0.5,0.1,0.8,0.2,1.1c0.1,0.3,0.4,0.4,0.9,0.4c0.6,0,1.2-0.2,1.9-0.6
		c0.6-0.4,1.2-1,1.7-1.8c0.5-0.8,0.9-1.8,1.2-2.9c0.3-1.1,0.5-2.4,0.5-3.9c0-1-0.1-1.8-0.2-2.5c-0.2-0.7-0.3-1.2-0.5-1.6
		c-0.2-0.4-0.4-0.7-0.7-0.9c-0.2-0.2-0.4-0.4-0.6-0.5c-0.1-0.1-0.3-0.2-0.4-0.2c-0.2,0-0.2-0.1-0.2-0.3c0-0.2,0.1-0.5,0.2-0.8
		c0.1-0.3,0.3-0.6,0.5-0.8c0.2-0.3,0.4-0.5,0.7-0.6c0.2-0.2,0.5-0.3,0.7-0.3c0.5,0,1,0.2,1.5,0.7c0.5,0.5,1,1.2,1.4,2
		c0.4,0.8,0.8,1.7,1.1,2.8c0.3,1,0.4,2.1,0.4,3.2c0,1.7-0.2,3.3-0.7,4.8c-0.5,1.5-1.1,2.8-1.9,3.9c-0.8,1.1-1.9,2-3,2.7s-2.5,1-4,1
		c-0.8,0-1.5-0.1-2-0.4c-0.5-0.3-1-0.6-1.3-1s-0.6-1-0.7-1.6c-0.1-0.6-0.2-1.2-0.2-1.9V68.4z"/>
	<path d="M212,70.5c0,0.9-0.2,1.9-0.5,2.9s-0.8,1.9-1.4,2.8c-0.6,0.9-1.4,1.7-2.3,2.3c-0.9,0.7-2,1.2-3.2,1.6
		c0.2,0.4,0.4,0.8,0.6,1.2c0.3,0.4,0.6,0.7,1,1c0.4,0.3,0.8,0.5,1.3,0.7c0.5,0.2,1.1,0.2,1.7,0.2c1,0,1.8-0.2,2.5-0.5
		c0.7-0.4,1.3-0.9,1.8-1.5c0.5-0.6,0.9-1.3,1.2-2c0.3-0.7,0.5-1.5,0.7-2.3c0.1-0.6,0.3-0.9,0.7-1.1c0.3-0.2,0.7-0.2,1.1-0.1
		s0.7,0.3,1,0.6c0.3,0.3,0.4,0.7,0.3,1.1c-0.1,0.5-0.2,1.1-0.3,1.7c-0.2,0.7-0.4,1.3-0.7,2c-0.3,0.7-0.7,1.3-1.2,2
		c-0.5,0.6-1.1,1.2-1.8,1.7s-1.5,0.9-2.5,1.2c-0.9,0.3-2,0.5-3.2,0.5c-1.1,0-2.2-0.2-3.3-0.7c-1.1-0.4-2-1.1-2.8-1.9
		c-0.8-0.8-1.5-1.9-2-3.1c-0.5-1.2-0.7-2.6-0.7-4.2c0-1.6,0.2-3,0.7-4.4c0.4-1.4,1-2.5,1.7-3.5c0.7-1,1.5-1.8,2.4-2.3
		c0.9-0.6,1.8-0.8,2.8-0.8c0.7,0,1.3,0.1,1.9,0.4s1,0.6,1.4,1c0.4,0.4,0.7,1,0.9,1.6C211.9,69.1,212,69.8,212,70.5z M204,76.4
		c0,0.1,0,0.3,0,0.4s0,0.3,0,0.5c0.6-0.3,1.2-0.7,1.7-1.1c0.5-0.5,0.9-1,1.3-1.6s0.6-1.2,0.8-1.9c0.2-0.7,0.3-1.4,0.3-2.2
		c0-0.6-0.1-1-0.3-1.3c-0.2-0.3-0.4-0.5-0.8-0.5c-0.4,0-0.8,0.1-1.1,0.4c-0.3,0.3-0.6,0.6-0.8,1.1c-0.2,0.4-0.4,1-0.6,1.5
		c-0.2,0.6-0.3,1.1-0.4,1.7c-0.1,0.6-0.2,1.1-0.2,1.6C204,75.7,204,76.1,204,76.4z"/>
	<path d="M226.3,86.5c-0.6,0-1.2-0.1-1.8-0.3c-0.6-0.2-1.2-0.5-1.7-0.9c-0.5-0.4-0.9-1-1.2-1.7c-0.3-0.7-0.5-1.6-0.5-2.7
		c0-1.6,0.2-3.3,0.6-5.1c0.4-1.8,1.1-3.8,1.9-5.9h-3.8h-0.6c0,0.5,0,1.1-0.1,1.9c0,0.7-0.1,1.5-0.2,2.4c-0.1,0.8-0.2,1.7-0.4,2.6
		c-0.2,0.9-0.3,1.7-0.6,2.4c-0.2,0.5-0.4,0.8-0.8,0.9c-0.4,0.1-0.7,0-1-0.2c-0.3-0.2-0.6-0.5-0.8-0.9s-0.3-0.8-0.1-1.2
		c0.1-0.5,0.2-1.1,0.3-1.8c0.1-0.7,0.2-1.5,0.2-2.3c0.1-0.8,0.1-1.6,0.1-2.4c0-0.8,0.1-1.5,0.1-2.2c-0.6-0.3-1.1-0.8-1.5-1.3
		c-0.4-0.5-0.6-1.2-0.6-1.9c0-0.3,0.1-0.7,0.2-0.9c0.1-0.3,0.3-0.5,0.5-0.7c0.2-0.2,0.5-0.4,0.8-0.5c0.3-0.1,0.6-0.2,1-0.2
		c0.3,0,0.6,0,0.9,0.1c0.3,0.1,0.6,0.2,0.9,0.4c0.3,0.2,0.5,0.5,0.8,0.8s0.4,0.8,0.6,1.3c0.4,0,0.8,0.1,1,0.1c0.3,0,0.5,0,0.7,0.1
		c0.2,0,0.4,0,0.5,0s0.3,0,0.4,0h2.6c0.1,0,0.4,0.1,0.6,0.3c0.3,0.2,0.6,0.4,0.8,0.7c0.3,0.3,0.5,0.6,0.7,0.9
		c0.2,0.3,0.3,0.6,0.2,0.9c0,0.1-0.1,0.3-0.2,0.7c-0.1,0.4-0.3,0.8-0.4,1.4c-0.2,0.6-0.3,1.2-0.5,2c-0.2,0.7-0.4,1.5-0.5,2.3
		c-0.2,0.8-0.3,1.7-0.4,2.5c-0.1,0.9-0.2,1.7-0.2,2.6c0,0.3,0,0.7,0.1,1c0.1,0.3,0.2,0.6,0.4,0.9c0.2,0.3,0.4,0.5,0.6,0.6
		c0.3,0.1,0.5,0.2,0.9,0.2c0.6,0,1.1-0.2,1.5-0.5c0.4-0.4,0.7-0.8,1-1.3s0.5-1.1,0.7-1.7c0.2-0.6,0.3-1.2,0.4-1.8
		c0.1-0.5,0.3-0.9,0.5-1.1c0.2-0.2,0.5-0.4,0.7-0.4c0.2,0,0.4,0.1,0.6,0.2c0.2,0.1,0.4,0.3,0.6,0.5s0.3,0.4,0.4,0.7
		c0.1,0.2,0.2,0.5,0.2,0.7c0,0.1,0,0.1,0,0.2s0,0.1,0,0.1c-0.2,0.8-0.5,1.7-0.9,2.6c-0.4,0.9-0.8,1.8-1.4,2.5
		c-0.6,0.8-1.3,1.4-2.1,1.9C228.3,86.2,227.4,86.5,226.3,86.5z"/>
</g>
<g class="st2">
	<path d="M155,116.8c1.6-0.3,2.8-0.9,3.7-1.7c0.9-0.8,1.5-1.8,1.9-2.9c0.4-1.1,0.7-2.4,0.8-3.8c0.1-1.4,0.3-2.8,0.4-4.3
		c0.1-1.5,0.4-3,0.7-4.5c0.3-1.5,0.9-3,1.7-4.4c0-0.1,0.2-0.3,0.3-0.4c0.2-0.2,0.4-0.2,0.7-0.2c0.3,0,0.6,0,1,0.1
		c0.3,0.1,0.7,0.2,1,0.3c0.3,0.1,0.5,0.3,0.7,0.5c0.2,0.2,0.3,0.4,0.3,0.6c0,0.2-0.1,0.4-0.4,0.6c-0.5,0.8-0.9,1.6-1.2,2.6
		c-0.3,1-0.5,1.9-0.7,3c-0.2,1-0.3,2.1-0.5,3.2c-0.1,1.1-0.3,2.2-0.5,3.2c-0.2,1.1-0.4,2.1-0.7,3.1c-0.3,1-0.7,2-1.1,2.9
		c-0.5,0.9-1.1,1.7-1.8,2.4c-0.7,0.7-1.7,1.3-2.8,1.8c1.2,0.6,2.1,1.4,2.9,2.3c0.8,0.9,1.4,1.9,2,2.9c0.5,1.1,1,2.1,1.4,3.3
		c0.4,1.1,0.8,2.3,1.2,3.4c0.4,1.1,0.8,2.2,1.3,3.3c0.5,1.1,1.1,2,1.9,2.8c0.1,0.1,0.2,0.1,0.3,0.2c0.1,0,0.2,0.1,0.3,0.1
		c0.1,0,0.2,0.1,0.3,0.1c0.1,0.1,0.1,0.1,0.1,0.2c0,0.2-0.1,0.5-0.4,0.8c-0.3,0.3-0.6,0.6-1,0.9c-0.4,0.3-0.8,0.5-1.1,0.7
		c-0.4,0.2-0.7,0.3-0.9,0.3c-0.2,0-0.5-0.1-0.7-0.3c-0.7-0.9-1.3-1.8-1.8-2.7c-0.5-0.9-0.9-1.9-1.2-2.8c-0.4-1-0.7-1.9-0.9-2.9
		c-0.3-1-0.5-1.9-0.8-2.8c-0.3-0.9-0.6-1.7-0.9-2.5c-0.3-0.8-0.7-1.5-1.2-2.2c-0.5-0.7-1.1-1.2-1.8-1.7c-0.7-0.5-1.5-0.9-2.5-1.2
		v11.3c0,0.4-0.1,0.7-0.4,0.9c-0.3,0.2-0.6,0.3-1,0.3c-0.3,0-0.6,0-0.9-0.1c-0.3-0.1-0.6-0.2-0.8-0.3c-0.2-0.1-0.4-0.3-0.6-0.5
		c-0.2-0.2-0.2-0.4-0.2-0.5V101c-1.1,0.1-2.2,0.5-3.2,1s-1.9,1.2-2.6,2c-0.7,0.8-1.3,1.9-1.8,3.1c-0.4,1.2-0.6,2.6-0.6,4.2
		c0,1,0.1,1.9,0.3,2.7c0.2,0.8,0.5,1.5,0.8,2.1c0.3,0.6,0.6,1,0.9,1.3c0.3,0.3,0.5,0.5,0.7,0.5c0.1,0,0.3,0,0.4-0.1
		c0.1-0.1,0.3-0.1,0.4-0.1c0.3,0,0.4,0.2,0.4,0.6c0,0.5-0.1,1-0.4,1.5c-0.2,0.5-0.5,0.9-0.9,1.2c-0.4,0.3-0.7,0.5-1.2,0.6
		c-0.4,0.1-0.8,0-1.2-0.3c-0.4-0.3-0.9-0.7-1.4-1.3c-0.5-0.6-1-1.3-1.4-2.2c-0.4-0.9-0.8-1.8-1-2.9s-0.4-2.2-0.4-3.5
		c0-1.8,0.2-3.3,0.6-4.7c0.4-1.4,1-2.6,1.7-3.6c0.7-1,1.5-1.9,2.5-2.7c0.9-0.7,1.9-1.3,3-1.8c1-0.5,2.1-0.8,3.2-1
		c1.1-0.2,2.1-0.3,3.1-0.3c0.3,0,0.5,0.1,0.8,0.2c0.2,0.1,0.5,0.3,0.6,0.4c0.2,0.2,0.3,0.4,0.4,0.7c0.1,0.3,0.2,0.5,0.2,0.8V116.8z"
		/>
	<path d="M180.8,117.5c0,0.9-0.2,1.9-0.5,2.9s-0.8,1.9-1.4,2.8c-0.6,0.9-1.4,1.7-2.3,2.3c-0.9,0.7-2,1.2-3.2,1.6
		c0.2,0.4,0.4,0.8,0.6,1.2c0.3,0.4,0.6,0.7,1,1c0.4,0.3,0.8,0.5,1.3,0.7c0.5,0.2,1.1,0.2,1.7,0.2c1,0,1.8-0.2,2.5-0.5
		c0.7-0.4,1.3-0.9,1.8-1.5c0.5-0.6,0.9-1.3,1.2-2c0.3-0.7,0.5-1.5,0.7-2.3c0.1-0.6,0.3-0.9,0.7-1.1c0.3-0.2,0.7-0.2,1.1-0.1
		s0.7,0.3,1,0.6c0.3,0.3,0.4,0.7,0.3,1.1c-0.1,0.5-0.2,1.1-0.3,1.7c-0.2,0.7-0.4,1.3-0.7,2c-0.3,0.7-0.7,1.3-1.2,2
		c-0.5,0.6-1.1,1.2-1.8,1.7s-1.5,0.9-2.5,1.2c-0.9,0.3-2,0.5-3.2,0.5c-1.1,0-2.2-0.2-3.3-0.7c-1.1-0.4-2-1.1-2.8-1.9
		c-0.8-0.8-1.5-1.9-2-3.1c-0.5-1.2-0.7-2.6-0.7-4.2c0-1.6,0.2-3,0.7-4.4c0.4-1.4,1-2.5,1.7-3.5c0.7-1,1.5-1.8,2.4-2.3
		c0.9-0.6,1.8-0.8,2.8-0.8c0.7,0,1.3,0.1,1.9,0.4s1,0.6,1.4,1c0.4,0.4,0.7,1,0.9,1.6C180.7,116.1,180.8,116.8,180.8,117.5z
		 M172.7,123.4c0,0.1,0,0.3,0,0.4c0,0.1,0,0.3,0,0.5c0.6-0.3,1.2-0.7,1.7-1.1c0.5-0.5,0.9-1,1.3-1.6c0.4-0.6,0.6-1.2,0.8-1.9
		c0.2-0.7,0.3-1.4,0.3-2.2c0-0.6-0.1-1-0.3-1.3c-0.2-0.3-0.4-0.5-0.8-0.5c-0.4,0-0.8,0.1-1.1,0.4c-0.3,0.3-0.6,0.6-0.8,1.1
		c-0.2,0.4-0.4,1-0.6,1.5c-0.2,0.6-0.3,1.1-0.4,1.7c-0.1,0.6-0.2,1.1-0.2,1.6C172.7,122.7,172.7,123.1,172.7,123.4z"/>
	<path d="M195,124.8c0.1-0.5,0.2-0.8,0.5-1.1c0.2-0.2,0.4-0.3,0.7-0.4c0.2,0,0.5,0,0.7,0.2c0.2,0.1,0.5,0.3,0.6,0.5
		c0.2,0.2,0.3,0.5,0.4,0.8c0.1,0.3,0.1,0.6,0,0.8c-0.2,0.7-0.6,1.4-1,2.3c-0.4,0.9-1,1.7-1.6,2.5c-0.7,0.8-1.4,1.5-2.3,2
		c-0.9,0.6-1.9,0.8-3,0.8c-1,0-1.8-0.2-2.5-0.5c-0.7-0.3-1.3-0.8-1.8-1.3c-0.5-0.6-0.9-1.3-1.1-2.1c-0.3-0.8-0.4-1.7-0.4-2.7v-22.8
		c0-0.9,0.1-1.8,0.4-2.6c0.2-0.8,0.6-1.5,1-2c0.4-0.6,0.9-1,1.5-1.3c0.6-0.3,1.1-0.5,1.8-0.5c0.7,0,1.4,0.1,1.9,0.4
		c0.5,0.3,0.9,0.6,1.2,1.1s0.6,0.9,0.8,1.5c0.2,0.6,0.3,1.2,0.4,1.7c0.1,0.6,0.1,1.2,0.1,1.8c0,0.6,0,1.1,0,1.6
		c0,1.2-0.1,2.5-0.3,3.8c-0.2,1.3-0.5,2.7-0.9,4c-0.4,1.3-0.7,2.6-1.1,3.7c-0.4,1.2-0.8,2.3-1.2,3.2c-0.4,0.9-0.7,1.7-1,2.3
		c-0.3,0.6-0.5,0.9-0.6,1v2.9c0,1,0.2,1.8,0.6,2.5c0.4,0.6,1.1,1,2,1c0.6,0,1.1-0.2,1.6-0.5c0.5-0.3,0.9-0.8,1.3-1.3
		c0.4-0.5,0.7-1.1,1-1.7C194.7,126,194.9,125.4,195,124.8z M187.9,117.3c0.2-0.3,0.4-0.8,0.5-1.4c0.2-0.6,0.3-1.2,0.5-1.9
		c0.2-0.7,0.3-1.4,0.4-2.2c0.1-0.8,0.2-1.5,0.3-2.2s0.2-1.4,0.2-2.1c0.1-0.6,0.1-1.2,0.1-1.6c0-1.7-0.1-2.9-0.4-3.6
		c-0.2-0.8-0.6-1.2-1-1.2c-0.1,0-0.2,0.1-0.3,0.2c-0.1,0.1-0.2,0.3-0.2,0.5c-0.1,0.2-0.1,0.4-0.1,0.7c0,0.2,0,0.5,0,0.6V117.3z"/>
	<path d="M206,124.8c0.1-0.5,0.2-0.8,0.5-1.1c0.2-0.2,0.4-0.3,0.7-0.4c0.2,0,0.5,0,0.7,0.2c0.2,0.1,0.5,0.3,0.6,0.5
		c0.2,0.2,0.3,0.5,0.4,0.8c0.1,0.3,0.1,0.6,0,0.8c-0.2,0.7-0.6,1.4-1,2.3c-0.4,0.9-1,1.7-1.6,2.5c-0.7,0.8-1.4,1.5-2.3,2
		c-0.9,0.6-1.9,0.8-3,0.8c-1,0-1.8-0.2-2.5-0.5c-0.7-0.3-1.3-0.8-1.8-1.3c-0.5-0.6-0.9-1.3-1.1-2.1c-0.3-0.8-0.4-1.7-0.4-2.7v-22.8
		c0-0.9,0.1-1.8,0.4-2.6c0.2-0.8,0.6-1.5,1-2c0.4-0.6,0.9-1,1.5-1.3c0.6-0.3,1.1-0.5,1.8-0.5c0.7,0,1.4,0.1,1.9,0.4
		c0.5,0.3,0.9,0.6,1.2,1.1s0.6,0.9,0.8,1.5c0.2,0.6,0.3,1.2,0.4,1.7c0.1,0.6,0.1,1.2,0.1,1.8c0,0.6,0,1.1,0,1.6
		c0,1.2-0.1,2.5-0.3,3.8c-0.2,1.3-0.5,2.7-0.9,4c-0.4,1.3-0.7,2.6-1.1,3.7c-0.4,1.2-0.8,2.3-1.2,3.2c-0.4,0.9-0.7,1.7-1,2.3
		c-0.3,0.6-0.5,0.9-0.6,1v2.9c0,1,0.2,1.8,0.6,2.5c0.4,0.6,1.1,1,2,1c0.6,0,1.1-0.2,1.6-0.5c0.5-0.3,0.9-0.8,1.3-1.3
		c0.4-0.5,0.7-1.1,1-1.7C205.7,126,205.9,125.4,206,124.8z M198.9,117.3c0.2-0.3,0.4-0.8,0.5-1.4c0.2-0.6,0.3-1.2,0.5-1.9
		c0.2-0.7,0.3-1.4,0.4-2.2c0.1-0.8,0.2-1.5,0.3-2.2s0.2-1.4,0.2-2.1c0.1-0.6,0.1-1.2,0.1-1.6c0-1.7-0.1-2.9-0.4-3.6
		c-0.2-0.8-0.6-1.2-1-1.2c-0.1,0-0.2,0.1-0.3,0.2c-0.1,0.1-0.2,0.3-0.2,0.5c-0.1,0.2-0.1,0.4-0.1,0.7c0,0.2,0,0.5,0,0.6V117.3z"/>
	<path d="M223.9,124.8c0.1-0.5,0.3-0.9,0.5-1.1c0.2-0.2,0.4-0.4,0.7-0.4c0.2,0,0.4,0.1,0.6,0.2c0.2,0.1,0.4,0.3,0.6,0.5
		s0.3,0.4,0.4,0.7c0.1,0.2,0.2,0.5,0.2,0.7c0,0,0,0.1,0,0.2s0,0.2,0,0.3c-0.4,1.4-0.9,2.7-1.5,3.8c-0.6,1.1-1.2,2.1-1.8,3
		c-0.6,0.9-1.3,1.7-2,2.4c-0.7,0.7-1.4,1.3-2.1,1.9v8.6c0,1.3-0.2,2.4-0.5,3.3c-0.3,0.9-0.7,1.6-1.2,2.2c-0.5,0.6-1,1-1.7,1.2
		s-1.2,0.4-1.9,0.4c-0.7,0-1.3-0.2-1.9-0.5c-0.6-0.3-1.1-0.7-1.5-1.2c-0.4-0.5-0.8-1.1-1-1.8c-0.2-0.7-0.4-1.4-0.4-2.2
		c0-1.3,0.2-2.4,0.5-3.4c0.3-1,0.8-1.9,1.4-2.7c0.6-0.8,1.2-1.6,2-2.3c0.7-0.7,1.5-1.4,2.4-2.2v-6.3c-0.6,1-1.3,1.8-2.1,2.5
		c-0.8,0.6-1.7,1-2.8,1c-0.8,0-1.6-0.2-2.2-0.5s-1.2-0.8-1.7-1.5c-0.5-0.6-0.8-1.4-1-2.3c-0.2-0.9-0.4-1.9-0.4-3
		c0-1.3,0.1-2.6,0.3-4c0.2-1.3,0.4-2.5,0.6-3.6c0.3-1.3,0.6-2.5,0.9-3.6c0.1-0.2,0.1-0.4,0.2-0.6c0-0.2,0.1-0.4,0.3-0.6
		c0.1-0.2,0.4-0.3,0.7-0.4c0.3-0.1,0.8-0.2,1.5-0.2c0.6,0,1,0.1,1.2,0.3c0.2,0.2,0.2,0.5,0.2,0.8c0,0.3-0.1,0.6-0.3,0.9
		c-0.2,0.3-0.3,0.6-0.3,0.8c-0.2,0.9-0.4,1.8-0.6,2.5c-0.2,0.8-0.3,1.5-0.5,2.3c-0.1,0.8-0.2,1.6-0.3,2.4c-0.1,0.8-0.1,1.8-0.1,2.8
		c0,1.4,0.2,2.4,0.6,3.1c0.4,0.7,1,1,1.7,1c0.5,0,1-0.2,1.4-0.6c0.4-0.4,0.8-0.9,1.2-1.5c0.3-0.6,0.7-1.3,0.9-2.1
		c0.3-0.8,0.5-1.6,0.6-2.5v-8.1c0-0.5,0-0.8-0.1-1c-0.1-0.2-0.1-0.4-0.1-0.6c0-0.2,0.1-0.4,0.4-0.6c0.3-0.2,0.6-0.2,0.9-0.2
		c0.8,0,1.5,0.2,2,0.6c0.5,0.4,0.7,0.9,0.7,1.6v17.6c0.9-1,1.8-2.2,2.5-3.4C222.7,128,223.4,126.5,223.9,124.8z M214.3,149.5
		c0.4,0,0.7-0.2,0.9-0.5c0.2-0.3,0.3-0.7,0.4-1.1c0.1-0.4,0.1-0.9,0.1-1.3s0-0.8,0-1v-5.3c-0.8,0.8-1.5,1.7-2,2.8
		c-0.5,1-0.7,2.3-0.7,3.8c0,0.8,0.1,1.4,0.4,2C213.5,149.3,213.9,149.5,214.3,149.5z"/>
</g>
</svg>
