<?xml version="1.0" encoding="utf-8"?>
<!-- Generator: Adobe Illustrator 23.0.0, SVG Export Plug-In . SVG Version: 6.00 Build 0)  -->
<svg version="1.1" id="Layer_1" xmlns="http://www.w3.org/2000/svg" xmlns:xlink="http://www.w3.org/1999/xlink" x="0px" y="0px"
	 viewBox="0 0 362.7 147.5" style="enable-background:new 0 0 362.7 147.5;" xml:space="preserve">
<style type="text/css">
	.st0{stroke:#000000;stroke-width:2;stroke-miterlimit:10;}
	.st1{fill:none;stroke:#000000;stroke-width:2;stroke-miterlimit:10;}
	.st2{enable-background:new    ;}
</style>
<path class="st0" d="M0.8,59.7l100,18.3 M0,93.6l101.7-1.1 M4.1,130.3l99.2-22.2 M361.9,59.7L261.9,78 M362.7,93.6L261,92.5
	 M358.6,130.3l-99.2-22.2"/>
<path class="st1" d="M92.8,9.2l45,22.3 M93.6,10.1l6.4,45 M270,8.8l-45,22.3 M269.1,9.6l-6.4,45"/>
<g class="st2">
	<path d="M134.4,76.3c0.6,0,1.3-0.1,2-0.3c0.7-0.2,1.4-0.5,2-0.9c0.7-0.4,1.3-0.8,1.9-1.4c0.6-0.5,1.1-1.1,1.6-1.7
		c0.5-0.6,0.8-1.3,1.1-2c0.3-0.7,0.4-1.4,0.4-2.1c0-0.3-0.1-0.6-0.2-0.9c-0.1-0.3-0.3-0.6-0.5-0.9c-0.2-0.3-0.5-0.5-0.9-0.7
		c-0.4-0.2-0.9-0.3-1.4-0.3c-1.1,0-2.2,0.3-3.2,0.8c-1,0.5-1.9,1.2-2.8,2.1c-0.9,0.9-1.6,1.9-2.4,3.1c-0.7,1.2-1.3,2.5-1.8,3.8
		c-0.5,1.4-0.9,2.7-1.1,4.2c-0.3,1.4-0.4,2.8-0.4,4.2c0,1.5,0.1,3,0.4,4.5c0.3,1.5,0.7,2.7,1.3,3.9s1.4,2,2.4,2.7c1,0.7,2.2,1,3.7,1
		c1.1,0,2-0.2,2.9-0.5c0.8-0.3,1.6-0.6,2.2-1c0.6-0.4,1.1-0.7,1.4-1c0.3-0.3,0.5-0.5,0.5-0.5c0.2-0.4,0.5-0.6,0.7-0.6
		c0.3-0.1,0.5,0,0.8,0.1c0.3,0.1,0.5,0.3,0.7,0.6c0.2,0.3,0.4,0.6,0.5,0.9c0.1,0.3,0.2,0.6,0.2,0.9c0,0.3-0.1,0.6-0.3,0.8
		c0,0-0.2,0.2-0.4,0.4c-0.2,0.2-0.5,0.5-0.9,0.8c-0.4,0.3-0.9,0.6-1.4,1c-0.6,0.3-1.2,0.7-1.9,1c-0.7,0.3-1.5,0.5-2.4,0.7
		c-0.9,0.2-1.8,0.3-2.8,0.3c-1.8,0-3.4-0.4-4.8-1.1c-1.4-0.7-2.6-1.8-3.6-3.2c-1-1.4-1.7-3-2.3-5c-0.5-2-0.8-4.1-0.8-6.5
		c0-1.6,0.2-3.3,0.5-5s0.8-3.4,1.5-5c0.7-1.6,1.5-3.2,2.4-4.6c0.9-1.4,2-2.7,3.2-3.8c1.2-1.1,2.5-1.9,4-2.6c1.4-0.6,3-0.9,4.7-0.9
		c0.9,0,1.7,0.1,2.5,0.4c0.8,0.3,1.5,0.7,2,1.2c0.6,0.6,1,1.2,1.3,2.1c0.3,0.8,0.5,1.8,0.5,2.9c0,1-0.2,2-0.6,3
		c-0.4,1-0.9,1.9-1.6,2.8c-0.7,0.9-1.4,1.7-2.3,2.4c-0.9,0.7-1.8,1.4-2.8,1.9c-1,0.5-2,0.9-3,1.2c-1,0.3-2,0.4-2.9,0.4
		c-0.6,0-1.1-0.2-1.6-0.6c-0.4-0.4-0.6-1-0.6-1.8c0-0.2,0-0.4,0-0.5c0-0.2,0.1-0.4,0.1-0.5c0-0.2,0.1-0.3,0.2-0.4s0.2-0.1,0.2-0.1
		c0.1,0,0.2,0,0.2,0.1s0.2,0.1,0.3,0.2c0.1,0.1,0.3,0.1,0.5,0.2C133.7,76.3,134,76.3,134.4,76.3z"/>
	<path d="M167.5,88.8c0-0.2,0.1-0.4,0.3-0.5c0.2-0.1,0.4-0.2,0.6-0.3s0.5,0,0.8,0s0.5,0.2,0.7,0.3c0.2,0.2,0.3,0.4,0.4,0.7
		c0.1,0.3,0.1,0.7,0,1.2c-0.1,0.7-0.4,1.3-0.7,1.9c-0.3,0.6-0.8,1.1-1.3,1.6c-0.5,0.5-1.1,0.8-1.8,1.1c-0.7,0.3-1.4,0.4-2.3,0.4
		c-0.5,0-0.9,0-1.3-0.1c-0.4,0-0.8-0.1-1.2-0.3c-0.6,1.1-1.4,1.9-2.4,2.6c-1,0.7-2.2,1-3.6,1c-1.3,0-2.4-0.2-3.3-0.7
		c-0.9-0.5-1.7-1.2-2.3-2c-0.6-0.9-1-1.8-1.3-3c-0.3-1.1-0.4-2.3-0.4-3.6c0-1.8,0.2-3.5,0.6-4.9c0.4-1.5,0.9-2.7,1.5-3.7
		c0.6-1,1.1-1.8,1.7-2.3s1-0.8,1.3-0.8c0.3,0,0.6,0.1,0.9,0.4c0.3,0.3,0.5,0.6,0.6,1c0.1,0.4,0.2,0.8,0.1,1.2
		c-0.1,0.4-0.2,0.7-0.6,0.9c-0.2,0.3-0.4,0.7-0.7,1.1c-0.3,0.4-0.5,0.9-0.8,1.5c-0.2,0.6-0.4,1.4-0.6,2.2c-0.2,0.9-0.2,1.9-0.2,3.2
		c0,1.1,0.1,2,0.3,2.8c0.2,0.8,0.4,1.4,0.8,2c0.3,0.5,0.7,0.9,1.1,1.2c0.4,0.3,0.9,0.4,1.4,0.4c0.7,0,1.3-0.2,1.8-0.5
		c0.5-0.3,0.9-0.8,1.2-1.4c-1.2-1-2.1-2.3-2.7-3.8c-0.6-1.6-0.9-3.2-0.9-5c0-0.8,0.1-1.5,0.3-2.2c0.2-0.7,0.4-1.3,0.8-1.9
		c0.3-0.5,0.8-1,1.3-1.3c0.5-0.3,1.1-0.5,1.8-0.5c0.6,0,1.1,0.2,1.7,0.6c0.5,0.4,1,1,1.4,1.8c0.4,0.7,0.7,1.6,0.9,2.7
		s0.3,2.1,0.3,3.3c0,0.9-0.1,1.8-0.2,2.8c-0.1,0.9-0.3,1.8-0.5,2.6c0.2,0.1,0.3,0.1,0.5,0.1c0.2,0,0.3,0,0.5,0c0.5,0,1-0.1,1.4-0.3
		s0.8-0.5,1.1-0.8c0.3-0.3,0.5-0.7,0.7-1.1C167.3,89.8,167.4,89.3,167.5,88.8z M158,84.2c0,1.1,0.2,2.2,0.5,3.2
		c0.3,1,0.8,1.9,1.4,2.6c0.1-0.8,0.1-1.6,0.1-2.3c0-0.8,0-1.6,0-2.4c0-0.7-0.1-1.3-0.2-1.9c-0.1-0.5-0.2-0.9-0.4-1.2
		c-0.2-0.3-0.4-0.5-0.6-0.5C158.3,81.8,158,82.6,158,84.2z"/>
	<path d="M167.6,80.4c0-0.5,0-0.8-0.1-1c-0.1-0.2-0.1-0.4-0.1-0.6c0-0.2,0.1-0.4,0.4-0.6c0.3-0.2,0.6-0.2,0.9-0.2
		c0.8,0,1.5,0.2,2,0.6c0.5,0.4,0.7,0.9,0.7,1.6v2.2c0.3-0.7,0.7-1.4,1.1-2c0.4-0.6,0.8-1.1,1.3-1.6c0.5-0.4,1-0.8,1.5-1.1
		c0.5-0.3,1.1-0.4,1.7-0.4c0.8,0,1.5,0.2,2.1,0.5c0.5,0.3,1,0.7,1.3,1.2c0.3,0.5,0.5,1,0.6,1.6c0.1,0.6,0.2,1.2,0.2,1.8v10.4
		c0,0.1,0,0.3,0,0.5c0,0.3,0.1,0.5,0.1,0.8c0.1,0.3,0.2,0.5,0.4,0.7s0.4,0.3,0.7,0.3c0.5,0,0.9-0.2,1.3-0.5c0.4-0.4,0.7-0.8,1-1.3
		s0.5-1.1,0.7-1.7c0.2-0.6,0.3-1.2,0.4-1.8c0.1-0.5,0.3-0.9,0.5-1.1c0.2-0.2,0.5-0.4,0.7-0.4c0.2,0,0.4,0.1,0.6,0.2
		c0.2,0.1,0.4,0.3,0.6,0.5s0.3,0.4,0.4,0.7c0.1,0.2,0.2,0.5,0.2,0.7c0,0,0,0.1,0,0.1s0,0.1,0,0.2c-0.2,0.8-0.5,1.7-0.9,2.6
		c-0.4,0.9-0.8,1.8-1.4,2.5c-0.6,0.8-1.3,1.4-2.1,1.9c-0.8,0.5-1.7,0.8-2.8,0.8c-0.7,0-1.3-0.1-1.8-0.4c-0.5-0.3-1-0.6-1.3-1
		s-0.6-0.9-0.8-1.5c-0.2-0.6-0.3-1.2-0.3-1.8V83.6c0-0.4,0-0.8,0-1.1c0-0.3-0.1-0.6-0.1-0.9c-0.1-0.3-0.2-0.5-0.3-0.6
		c-0.1-0.2-0.3-0.2-0.6-0.2c-0.4,0-0.8,0.2-1.3,0.7c-0.5,0.5-1,1.1-1.5,1.9c-0.5,0.8-0.9,1.7-1.3,2.6c-0.4,1-0.6,2-0.7,3v7.3
		c0,0.2,0,0.5,0,0.7c0,0.3-0.1,0.5-0.1,0.7c-0.1,0.2-0.2,0.4-0.4,0.5c-0.2,0.1-0.5,0.2-0.8,0.2c-0.2,0-0.5,0-0.8-0.1
		c-0.3-0.1-0.5-0.2-0.8-0.3c-0.2-0.2-0.4-0.4-0.6-0.7c-0.2-0.3-0.2-0.7-0.2-1.1V80.4z"/>
	<path d="M181.1,73.6c0.4,0,0.8,0.1,1.2,0.1c0.4,0,0.9,0.1,1.4,0.1c0.6,0,1.2,0,1.9,0v-8.5c0-0.4,0-0.6-0.1-0.9
		c-0.1-0.2-0.1-0.4-0.2-0.5c-0.1-0.1-0.1-0.2-0.2-0.3c-0.1-0.1-0.1-0.2-0.1-0.2c0-0.1,0-0.2,0.1-0.2c0.1-0.1,0.2-0.1,0.4-0.2
		s0.3-0.1,0.5-0.1c0.2,0,0.4,0,0.5,0c0.8,0,1.5,0.2,2,0.6c0.5,0.4,0.7,0.9,0.7,1.5v8.8c1.5,0,3.1,0,4.8,0c1.7,0,3.4-0.1,5.1-0.2
		c0.2-0.2,0.4-0.3,0.5-0.3c0.1,0.1,0.2,0.2,0.3,0.5c0,0.2,0,0.5,0,0.9c0,0.4-0.1,0.7-0.2,1c-0.1,0.3-0.2,0.6-0.4,0.9
		s-0.4,0.4-0.6,0.4c-2,0-3.8,0.1-5.3,0.1c-1.5,0-3,0-4.3,0v15.8c0,0.8,0.2,1.4,0.5,1.8c0.3,0.4,0.7,0.5,1.2,0.5
		c0.5,0,0.9-0.2,1.3-0.5c0.4-0.4,0.7-0.8,1-1.3s0.5-1.1,0.7-1.7c0.2-0.6,0.3-1.2,0.4-1.8c0.1-0.5,0.3-0.9,0.5-1.1
		c0.2-0.2,0.5-0.4,0.7-0.4c0.2,0,0.4,0.1,0.6,0.2c0.2,0.1,0.4,0.3,0.6,0.5s0.3,0.4,0.4,0.7c0.1,0.2,0.2,0.5,0.2,0.7c0,0,0,0.1,0,0.1
		s0,0.1,0,0.2c-0.2,0.8-0.5,1.7-0.9,2.6c-0.4,0.9-0.8,1.8-1.4,2.5c-0.6,0.8-1.3,1.4-2.1,1.9c-0.8,0.5-1.7,0.8-2.8,0.8
		c-0.7,0-1.3-0.1-1.8-0.3c-0.6-0.2-1-0.5-1.5-1c-0.4-0.4-0.7-1-1-1.7c-0.2-0.7-0.3-1.5-0.3-2.5V77c-0.6,0-1,0-1.5,0
		c-0.4,0-0.8,0-1.1,0c-0.3,0-0.6,0-0.9,0c-0.4,0-0.7-0.2-1-0.5c-0.3-0.4-0.5-0.7-0.6-1.2c-0.1-0.4-0.1-0.8,0-1.2
		C180.5,73.7,180.7,73.6,181.1,73.6z"/>
	<path d="M208.8,95.2c0.5,0,0.9-0.2,1.3-0.5c0.4-0.4,0.7-0.8,1-1.3s0.5-1.1,0.7-1.7c0.2-0.6,0.3-1.2,0.4-1.8
		c0.1-0.5,0.3-0.9,0.5-1.1c0.2-0.2,0.5-0.4,0.7-0.4c0.2,0,0.4,0.1,0.6,0.2c0.2,0.1,0.4,0.3,0.6,0.5s0.3,0.4,0.4,0.7
		c0.1,0.2,0.2,0.5,0.2,0.7c0,0,0,0.1,0,0.1s0,0.1,0,0.2c-0.2,0.8-0.5,1.7-0.9,2.6c-0.4,0.9-0.8,1.8-1.4,2.5
		c-0.6,0.8-1.3,1.4-2.1,1.9c-0.8,0.5-1.7,0.8-2.8,0.8c-0.9,0-1.6-0.2-2.3-0.6c-0.7-0.4-1.2-0.9-1.5-1.5c-0.5,0.6-1.1,1.1-1.8,1.5
		c-0.7,0.4-1.5,0.6-2.5,0.6c-1,0-1.8-0.2-2.6-0.6c-0.7-0.4-1.4-0.9-1.9-1.6c-0.5-0.7-0.9-1.5-1.1-2.4c-0.3-0.9-0.4-1.9-0.4-3
		c0-2.1,0.3-4,1-5.6s1.6-3.1,2.7-4.2c1.1-1.2,2.4-2.1,3.8-2.7c1.4-0.6,2.9-0.9,4.4-0.9c0.7,0,1.2,0.2,1.7,0.6
		c0.4,0.4,0.6,0.9,0.6,1.5c0,0.4,0,0.7-0.1,0.9c-0.1,0.2-0.3,0.3-0.5,0.3c-0.2,0-0.5,0-0.7,0c-0.2,0-0.5,0-0.8,0
		c-0.9,0-1.9,0.2-2.9,0.6c-1,0.4-1.9,1-2.6,1.9c-0.8,0.9-1.4,1.9-1.9,3.2c-0.5,1.3-0.8,2.9-0.8,4.7c0,1.3,0.3,2.3,0.8,3
		c0.5,0.7,1.2,1.1,2.1,1.1c0.7,0,1.3-0.3,1.7-0.8c0.5-0.5,0.8-1.1,1.1-1.8v-7.7c0-0.2,0-0.4,0-0.6c0-0.2,0-0.3-0.1-0.4
		c0-0.1,0-0.2-0.1-0.3c0-0.1,0-0.2,0-0.3c0-0.3,0.1-0.5,0.4-0.6c0.3-0.2,0.6-0.2,0.9-0.2c0.8,0,1.5,0.2,2,0.6
		c0.5,0.4,0.7,0.9,0.7,1.6v8.3c0,0.3,0,0.5,0.1,0.8c0.1,0.3,0.2,0.5,0.3,0.7c0.1,0.2,0.3,0.4,0.5,0.5
		C208.2,95.1,208.5,95.2,208.8,95.2z"/>
	<path d="M220.3,98.5c-1.1,0-2.2-0.2-3.2-0.6c-1-0.4-2-1-2.8-1.8c-0.8-0.8-1.4-1.8-1.9-3c-0.5-1.2-0.7-2.5-0.7-4.1
		c0-1.4,0.2-2.8,0.6-4.2c0.4-1.4,1-2.6,1.7-3.7c0.7-1.1,1.6-2,2.6-2.6c1-0.7,2.1-1,3.3-1c0.9,0,1.6,0.2,2.2,0.5
		c0.6,0.4,1.1,0.8,1.5,1.3c0.4,0.5,0.6,1,0.8,1.6c0.2,0.6,0.3,1.1,0.3,1.5c0,0.3-0.1,0.6-0.3,0.9c-0.2,0.3-0.4,0.5-0.6,0.7
		c-0.2,0.2-0.5,0.3-0.8,0.4c-0.3,0.1-0.6,0.1-0.8,0.1c-0.2,0-0.4-0.1-0.5-0.2c-0.1-0.1-0.2-0.4-0.1-0.7c-0.1-0.2-0.1-0.5-0.2-0.8
		c-0.1-0.3-0.2-0.6-0.3-0.9c-0.1-0.3-0.3-0.5-0.6-0.7c-0.2-0.2-0.6-0.3-1-0.3c-0.5,0-0.9,0.2-1.3,0.6c-0.4,0.4-0.8,1-1.1,1.8
		c-0.3,0.7-0.6,1.6-0.8,2.6c-0.2,1-0.3,2.1-0.3,3.2c0,1,0.1,1.9,0.4,2.6c0.3,0.8,0.6,1.4,1.1,1.9c0.5,0.5,1,0.9,1.6,1.2
		c0.6,0.3,1.3,0.4,2,0.4c1,0,1.8-0.2,2.6-0.5c0.7-0.4,1.3-0.9,1.8-1.5c0.5-0.6,0.9-1.3,1.2-2c0.3-0.7,0.5-1.5,0.7-2.3
		c0.1-0.6,0.3-0.9,0.7-1.1c0.3-0.2,0.7-0.2,1.1-0.1s0.7,0.3,1,0.6c0.3,0.3,0.4,0.7,0.3,1.1c-0.1,0.5-0.2,1.1-0.4,1.7
		c-0.2,0.7-0.4,1.3-0.7,2c-0.3,0.7-0.7,1.3-1.2,2c-0.5,0.6-1.1,1.2-1.8,1.7s-1.5,0.9-2.5,1.2C222.6,98.3,221.6,98.5,220.3,98.5z"/>
	<path d="M222.7,73.6c0.4,0,0.8,0.1,1.2,0.1c0.4,0,0.9,0.1,1.4,0.1c0.6,0,1.2,0,1.9,0v-8.5c0-0.4,0-0.6-0.1-0.9
		c-0.1-0.2-0.1-0.4-0.2-0.5c-0.1-0.1-0.1-0.2-0.2-0.3c-0.1-0.1-0.1-0.2-0.1-0.2c0-0.1,0-0.2,0.1-0.2c0.1-0.1,0.2-0.1,0.4-0.2
		s0.3-0.1,0.5-0.1c0.2,0,0.4,0,0.5,0c0.8,0,1.5,0.2,2,0.6c0.5,0.4,0.7,0.9,0.7,1.5v8.8c1.5,0,3.1,0,4.8,0c1.7,0,3.4-0.1,5.1-0.2
		c0.2-0.2,0.4-0.3,0.5-0.3c0.1,0.1,0.2,0.2,0.3,0.5c0,0.2,0,0.5,0,0.9c0,0.4-0.1,0.7-0.2,1c-0.1,0.3-0.2,0.6-0.4,0.9
		s-0.4,0.4-0.6,0.4c-2,0-3.8,0.1-5.3,0.1c-1.5,0-3,0-4.3,0v15.8c0,0.8,0.2,1.4,0.5,1.8c0.3,0.4,0.7,0.5,1.2,0.5
		c0.5,0,0.9-0.2,1.3-0.5c0.4-0.4,0.7-0.8,1-1.3s0.5-1.1,0.7-1.7c0.2-0.6,0.3-1.2,0.4-1.8c0.1-0.5,0.3-0.9,0.5-1.1
		c0.2-0.2,0.5-0.4,0.7-0.4c0.2,0,0.4,0.1,0.6,0.2c0.2,0.1,0.4,0.3,0.6,0.5s0.3,0.4,0.4,0.7c0.1,0.2,0.2,0.5,0.2,0.7c0,0,0,0.1,0,0.1
		s0,0.1,0,0.2c-0.2,0.8-0.5,1.7-0.9,2.6c-0.4,0.9-0.8,1.8-1.4,2.5c-0.6,0.8-1.3,1.4-2.1,1.9c-0.8,0.5-1.7,0.8-2.8,0.8
		c-0.7,0-1.3-0.1-1.8-0.3c-0.6-0.2-1-0.5-1.5-1c-0.4-0.4-0.7-1-1-1.7c-0.2-0.7-0.3-1.5-0.3-2.5V77c-0.6,0-1,0-1.5,0
		c-0.4,0-0.8,0-1.1,0c-0.3,0-0.6,0-0.9,0c-0.4,0-0.7-0.2-1-0.5c-0.3-0.4-0.5-0.7-0.6-1.2c-0.1-0.4-0.1-0.8,0-1.2
		C222.1,73.7,222.3,73.6,222.7,73.6z"/>
</g>
</svg>
