<?xml version="1.0" encoding="utf-8"?>
<!-- Generator: Adobe Illustrator 23.0.0, SVG Export Plug-In . SVG Version: 6.00 Build 0)  -->
<svg version="1.1" id="Layer_1" xmlns="http://www.w3.org/2000/svg" xmlns:xlink="http://www.w3.org/1999/xlink" x="0px" y="0px"
	 viewBox="0 0 362.7 147" style="enable-background:new 0 0 362.7 147;" xml:space="preserve">
<style type="text/css">
	.st0{stroke:#000000;stroke-width:2;stroke-miterlimit:10;}
	.st1{fill:none;stroke:#000000;stroke-width:2;stroke-miterlimit:10;}
	.st2{enable-background:new    ;}
</style>
<path class="st0" d="M0.8,58.7l100,18.3 M0,92.6l101.7-1.1 M4.1,129.3l99.2-22.2 M361.9,58.7L261.9,77 M362.7,92.6L261,91.5
	 M358.6,129.3l-99.2-22.2"/>
<path class="st1" d="M92.8,8.2l45,22.3 M93.6,9.1l6.4,45 M270,7.8l-45,22.3 M269.1,8.6l-6.4,45"/>
<g class="st2">
	<path d="M130.2,69.9c0-0.5,0-0.8-0.1-1c-0.1-0.2-0.1-0.4-0.1-0.6c0-0.2,0.1-0.4,0.4-0.6c0.3-0.2,0.6-0.2,0.9-0.2
		c0.8,0,1.5,0.2,2,0.6c0.5,0.4,0.8,1,0.8,1.6V86c0.6-0.1,1.3-0.3,2.1-0.6c0.8-0.3,1.5-0.6,2.3-1.1c0.8-0.5,1.5-1,2.2-1.7
		c0.7-0.7,1.3-1.4,1.9-2.3c0.5-0.9,1-1.9,1.3-3c0.3-1.1,0.5-2.4,0.5-3.8c0-0.9-0.2-1.9-0.5-2.9c-0.3-1-0.8-1.9-1.5-2.8
		c-0.7-0.8-1.5-1.5-2.6-2.1s-2.3-0.8-3.8-0.8c-1.9,0-3.6,0.3-5,1c-1.4,0.6-2.6,1.5-3.5,2.6c-0.9,1.1-1.6,2.3-2,3.6s-0.7,2.8-0.7,4.2
		c0,1.1,0.1,2,0.3,2.8c0.2,0.8,0.4,1.4,0.6,1.9c0.2,0.5,0.4,0.8,0.6,1.1c0.2,0.2,0.3,0.4,0.3,0.4c0.3-0.1,0.5,0,0.6,0.1
		c0.1,0.1,0.2,0.3,0.2,0.6c0,0.2-0.1,0.6-0.2,1c-0.2,0.5-0.4,0.9-0.6,1.3c-0.3,0.4-0.6,0.7-0.9,0.9c-0.3,0.2-0.7,0.2-1-0.1
		c-0.2-0.2-0.5-0.5-0.9-1c-0.4-0.5-0.8-1.1-1.2-1.9c-0.4-0.8-0.8-1.7-1.1-2.9c-0.3-1.1-0.5-2.4-0.5-3.9c0-2.3,0.4-4.4,1.1-6.3
		c0.7-1.9,1.7-3.5,3-4.9c1.3-1.4,2.9-2.4,4.7-3.1c1.8-0.7,3.8-1.1,6.1-1.1c1.8,0,3.5,0.3,5,0.9c1.5,0.6,2.8,1.4,3.9,2.5
		c1.1,1.1,1.9,2.4,2.5,3.9c0.6,1.5,0.9,3.1,0.9,4.9c0,1.7-0.2,3.3-0.7,4.8c-0.5,1.5-1.2,2.9-2,4.1c-0.9,1.2-1.9,2.3-3,3.3
		c-1.1,1-2.4,1.7-3.7,2.3c0.8,0.5,1.5,1,2.1,1.7c0.5,0.7,1,1.4,1.4,2.2c0.4,0.8,0.7,1.6,1,2.4c0.3,0.8,0.6,1.7,0.9,2.5
		c0.3,0.8,0.6,1.6,1,2.4c0.4,0.8,0.8,1.4,1.4,2.1c0.1,0.1,0.2,0.1,0.3,0.2c0.1,0,0.2,0.1,0.3,0.1c0.1,0,0.2,0.1,0.3,0.1
		c0.1,0.1,0.1,0.1,0.1,0.2c0,0.2-0.1,0.5-0.4,0.8c-0.3,0.3-0.6,0.6-1,0.9c-0.4,0.3-0.8,0.5-1.1,0.7c-0.4,0.2-0.7,0.3-0.9,0.3
		c-0.2,0-0.5-0.1-0.7-0.3c-0.8-0.9-1.4-1.9-1.9-2.9c-0.5-1-0.8-2-1.1-3c-0.3-1-0.6-1.9-0.9-2.9c-0.3-0.9-0.6-1.8-1-2.6
		s-1-1.5-1.6-2.1c-0.7-0.6-1.6-1-2.7-1.3v6.9c0,0.4-0.1,0.7-0.4,0.9c-0.3,0.2-0.6,0.3-1,0.3c-0.3,0-0.6,0-0.9-0.1
		c-0.3-0.1-0.6-0.2-0.8-0.3c-0.2-0.1-0.4-0.3-0.6-0.5c-0.2-0.2-0.2-0.4-0.2-0.5V69.9z"/>
	<path d="M161.3,81.5c0,0.9-0.2,1.9-0.5,2.9s-0.8,1.9-1.4,2.8c-0.6,0.9-1.4,1.7-2.3,2.3c-0.9,0.7-2,1.2-3.2,1.6
		c0.2,0.4,0.4,0.8,0.6,1.2c0.3,0.4,0.6,0.7,1,1c0.4,0.3,0.8,0.5,1.3,0.7c0.5,0.2,1.1,0.2,1.7,0.2c1,0,1.8-0.2,2.5-0.5
		c0.7-0.4,1.3-0.9,1.8-1.5c0.5-0.6,0.9-1.3,1.2-2c0.3-0.7,0.5-1.5,0.7-2.3c0.1-0.6,0.3-0.9,0.7-1.1c0.3-0.2,0.7-0.2,1.1-0.1
		s0.7,0.3,1,0.6c0.3,0.3,0.4,0.7,0.3,1.1c-0.1,0.5-0.2,1.1-0.3,1.7c-0.2,0.7-0.4,1.3-0.7,2c-0.3,0.7-0.7,1.3-1.2,2
		c-0.5,0.6-1.1,1.2-1.8,1.7c-0.7,0.5-1.5,0.9-2.5,1.2c-0.9,0.3-2,0.5-3.2,0.5c-1.1,0-2.2-0.2-3.3-0.7c-1.1-0.4-2-1.1-2.8-1.9
		c-0.8-0.8-1.5-1.9-2-3.1c-0.5-1.2-0.7-2.6-0.7-4.2c0-1.6,0.2-3,0.7-4.4c0.4-1.4,1-2.5,1.7-3.5c0.7-1,1.5-1.8,2.4-2.3
		c0.9-0.6,1.8-0.8,2.8-0.8c0.7,0,1.3,0.1,1.9,0.4s1,0.6,1.4,1c0.4,0.4,0.7,1,0.9,1.6C161.2,80.1,161.3,80.8,161.3,81.5z M153.2,87.4
		c0,0.1,0,0.3,0,0.4c0,0.1,0,0.3,0,0.5c0.6-0.3,1.2-0.7,1.7-1.1c0.5-0.5,0.9-1,1.3-1.6c0.4-0.6,0.6-1.2,0.8-1.9
		c0.2-0.7,0.3-1.4,0.3-2.2c0-0.6-0.1-1-0.3-1.3c-0.2-0.3-0.4-0.5-0.8-0.5c-0.4,0-0.8,0.1-1.1,0.4c-0.3,0.3-0.6,0.6-0.8,1.1
		c-0.2,0.4-0.4,1-0.6,1.5c-0.2,0.6-0.3,1.1-0.4,1.7c-0.1,0.6-0.2,1.1-0.2,1.6C153.2,86.7,153.2,87.1,153.2,87.4z"/>
	<path d="M167.5,89.2c-0.1,0.5-0.4,0.8-0.7,1c-0.4,0.1-0.7,0.1-1.1,0c-0.4-0.1-0.6-0.4-0.9-0.8c-0.2-0.4-0.3-0.7-0.2-1.2
		c0.2-1.1,0.6-2.3,1.1-3.7c0.5-1.3,0.9-2.7,1.4-4c-0.2-0.4-0.4-0.8-0.6-1.1c-0.1-0.4-0.2-0.8-0.2-1.2c0-0.4,0.2-0.9,0.5-1.3
		c0.3-0.5,0.7-0.9,1.1-1.3c0.4-0.4,0.9-0.7,1.4-1c0.5-0.3,0.9-0.4,1.2-0.4c0.6,0,1.1,0.2,1.4,0.6c0.3,0.4,0.5,1,0.5,1.6
		c0,0.4-0.1,0.7-0.2,1.1c-0.1,0.4-0.3,0.7-0.4,1c-0.1,0.3-0.3,0.6-0.4,0.8c-0.1,0.2-0.2,0.4-0.2,0.4c0.6,1,1.2,2,1.8,2.8
		c0.6,0.8,1.2,1.6,1.7,2.4c0.5,0.8,1,1.6,1.3,2.5s0.5,1.9,0.5,3.1c0,0.3,0,0.6-0.1,0.9c0,0.3-0.1,0.6-0.2,0.9
		c0.6-0.1,1.1-0.3,1.6-0.5c0.4-0.2,0.8-0.5,1.2-0.8c0.3-0.3,0.6-0.7,0.8-1c0.2-0.4,0.4-0.8,0.5-1.2c0.2-0.5,0.4-0.8,0.5-1
		c0.2-0.2,0.4-0.3,0.6-0.3c0.2,0,0.4,0.1,0.6,0.2c0.2,0.1,0.4,0.3,0.6,0.5c0.2,0.2,0.3,0.4,0.4,0.7c0.1,0.2,0.2,0.4,0.2,0.6
		c0,0.2-0.1,0.5-0.2,0.9c-0.1,0.3-0.3,0.7-0.5,1c-0.2,0.4-0.5,0.7-0.7,1c-0.3,0.3-0.6,0.6-0.9,0.9c-0.8,0.6-1.7,1.2-2.8,1.6
		c-1.1,0.4-2.4,0.7-3.9,0.8c-0.6,0.5-1.3,0.9-2.1,1.3c-0.8,0.3-1.7,0.5-2.8,0.5c-0.5,0-1.1-0.1-1.6-0.2c-0.5-0.1-1.1-0.3-1.6-0.5
		c-0.5-0.2-0.9-0.4-1.4-0.7c-0.4-0.2-0.7-0.5-1-0.7c-0.6-0.6-1-1.2-1.2-1.8c-0.2-0.6-0.2-1.1-0.1-1.6c0.1-0.5,0.3-0.9,0.5-1.2
		c0.3-0.3,0.5-0.5,0.8-0.5c0.2,0,0.4,0.1,0.8,0.2c0.3,0.1,0.8,0.3,1.2,0.5c0.5,0.2,1,0.5,1.5,0.7s1.1,0.5,1.6,0.7
		c0.5,0.2,1.1,0.4,1.6,0.5c0.5,0.1,1,0.2,1.4,0.2c0.3-0.3,0.5-0.8,0.8-1.3c0.2-0.5,0.3-1.1,0.3-1.8c0-0.8-0.1-1.5-0.3-2.2
		c-0.2-0.7-0.5-1.3-0.8-1.9c-0.3-0.6-0.7-1.1-1.2-1.6c-0.4-0.5-0.9-1-1.3-1.4c-0.4,1-0.7,1.9-1,2.8C168.1,87,167.8,88,167.5,89.2z"
		/>
	<path d="M194.3,97.5c-0.6,0-1.1-0.1-1.6-0.3c-0.5-0.2-0.9-0.4-1.2-0.7c-0.3-0.3-0.6-0.7-0.9-1.1c-0.2-0.4-0.4-0.9-0.5-1.4
		c-0.6,1.1-1.3,1.9-2.1,2.6c-0.8,0.7-1.8,1-2.9,1c-0.8,0-1.6-0.2-2.2-0.5s-1.2-0.8-1.7-1.5c-0.5-0.6-0.8-1.4-1-2.3
		c-0.2-0.9-0.4-1.9-0.4-3c0-1.3,0.1-2.6,0.3-4c0.2-1.3,0.4-2.5,0.6-3.6c0.3-1.3,0.6-2.5,0.9-3.6c0.1-0.2,0.1-0.4,0.2-0.6
		c0-0.2,0.1-0.4,0.3-0.6c0.1-0.2,0.4-0.3,0.7-0.4c0.3-0.1,0.8-0.2,1.5-0.2c0.6,0,1,0.1,1.2,0.3c0.2,0.2,0.2,0.5,0.2,0.8
		s-0.1,0.6-0.3,0.9c-0.2,0.3-0.3,0.6-0.3,0.8c-0.2,0.9-0.4,1.8-0.6,2.5c-0.2,0.8-0.3,1.5-0.5,2.3c-0.1,0.8-0.2,1.6-0.3,2.4
		c-0.1,0.8-0.1,1.8-0.1,2.8c0,1.4,0.2,2.4,0.6,3.1c0.4,0.7,1,1,1.7,1c0.5,0,1-0.2,1.4-0.6c0.4-0.4,0.8-0.9,1.2-1.5
		c0.3-0.6,0.7-1.3,0.9-2.1c0.3-0.8,0.5-1.6,0.6-2.5v-8.1c0-0.4,0-0.6-0.1-0.9c-0.1-0.2-0.1-0.4-0.2-0.5c-0.1-0.1-0.1-0.2-0.2-0.3
		c-0.1-0.1-0.1-0.2-0.1-0.3c0-0.1,0-0.2,0.1-0.2c0.1-0.1,0.2-0.1,0.4-0.2c0.2,0,0.3-0.1,0.5-0.1c0.2,0,0.4,0,0.5,0
		c0.8,0,1.5,0.2,2,0.6c0.5,0.4,0.7,0.9,0.7,1.6v12.7c0,0.1,0,0.3,0,0.5c0,0.3,0.1,0.5,0.1,0.8c0.1,0.3,0.2,0.5,0.4,0.7
		c0.2,0.2,0.4,0.3,0.8,0.3c0.5,0,0.9-0.2,1.3-0.5c0.4-0.4,0.7-0.8,1-1.3s0.5-1.1,0.7-1.7c0.2-0.6,0.3-1.2,0.4-1.8
		c0.1-0.5,0.3-0.9,0.5-1.1c0.2-0.2,0.5-0.4,0.7-0.4c0.2,0,0.4,0.1,0.6,0.2c0.2,0.1,0.4,0.3,0.6,0.5s0.3,0.4,0.4,0.7s0.2,0.5,0.2,0.7
		c0,0,0,0.1,0,0.1s0,0.1,0,0.2c-0.2,0.8-0.5,1.7-0.9,2.6c-0.4,0.9-0.8,1.8-1.4,2.5c-0.6,0.8-1.3,1.4-2.1,1.9
		C196.3,97.2,195.4,97.5,194.3,97.5z"/>
	<path d="M228.6,89.7c-0.2,0.8-0.5,1.7-0.9,2.6c-0.4,0.9-0.8,1.8-1.4,2.5c-0.6,0.8-1.3,1.4-2.1,1.9c-0.8,0.5-1.7,0.8-2.8,0.8
		c-0.7,0-1.3-0.1-1.8-0.4c-0.5-0.3-1-0.6-1.3-1s-0.6-0.9-0.8-1.5c-0.2-0.6-0.3-1.2-0.3-1.8V82.6c0-0.4,0-0.8,0-1.1
		c0-0.3-0.1-0.6-0.1-0.9c-0.1-0.3-0.2-0.5-0.3-0.6c-0.1-0.2-0.3-0.2-0.5-0.2c-0.3,0-0.8,0.2-1.2,0.7s-1,1.1-1.4,1.9
		c-0.5,0.8-0.9,1.7-1.2,2.6c-0.4,1-0.6,2-0.6,3v7.3c0,0.2,0,0.5,0,0.7c0,0.3-0.1,0.5-0.1,0.7c-0.1,0.2-0.2,0.4-0.4,0.5
		c-0.2,0.1-0.5,0.2-0.8,0.2c-0.2,0-0.5,0-0.8-0.1c-0.3-0.1-0.5-0.2-0.8-0.3c-0.2-0.2-0.4-0.4-0.6-0.7c-0.2-0.3-0.2-0.7-0.2-1.1V82.6
		c0-0.4,0-0.8,0-1.1s-0.1-0.6-0.1-0.9c-0.1-0.3-0.2-0.5-0.3-0.6c-0.1-0.2-0.3-0.2-0.5-0.2c-0.3,0-0.8,0.2-1.2,0.7s-1,1.1-1.4,1.9
		s-0.9,1.7-1.2,2.6c-0.3,1-0.6,2-0.6,3v7.3c0,0.2,0,0.5,0,0.7c0,0.3-0.1,0.5-0.1,0.7c-0.1,0.2-0.2,0.4-0.4,0.5
		c-0.2,0.1-0.5,0.2-0.8,0.2c-0.2,0-0.5,0-0.8-0.1c-0.3-0.1-0.5-0.2-0.8-0.3c-0.2-0.2-0.4-0.4-0.6-0.7c-0.2-0.3-0.2-0.7-0.2-1.1V79.4
		c0-0.5,0-0.8-0.1-1c-0.1-0.2-0.1-0.4-0.1-0.6c0-0.2,0.1-0.4,0.4-0.6c0.3-0.2,0.6-0.2,0.9-0.2c0.8,0,1.5,0.2,2,0.6
		c0.5,0.4,0.7,0.9,0.7,1.6v2.1c0.3-0.7,0.7-1.3,1.1-1.9s0.8-1.1,1.2-1.5c0.4-0.4,0.9-0.8,1.4-1s1-0.4,1.6-0.4c0.7,0,1.4,0.1,1.9,0.4
		c0.5,0.3,0.9,0.6,1.2,1.1c0.3,0.5,0.5,1,0.6,1.5c0.1,0.6,0.2,1.1,0.2,1.7c0.3-0.7,0.7-1.3,1-1.9c0.4-0.6,0.8-1.1,1.2-1.5
		c0.4-0.4,0.9-0.8,1.4-1s1-0.4,1.6-0.4c0.8,0,1.5,0.2,2,0.5c0.5,0.3,0.9,0.7,1.2,1.2s0.5,1,0.6,1.6c0.1,0.6,0.2,1.2,0.2,1.8v10.4
		c0,0.1,0,0.3,0,0.5c0,0.3,0.1,0.5,0.1,0.8c0.1,0.3,0.2,0.5,0.4,0.7s0.4,0.3,0.7,0.3c0.5,0,0.9-0.2,1.3-0.5c0.4-0.4,0.7-0.8,1-1.3
		s0.5-1.1,0.7-1.7c0.2-0.6,0.3-1.2,0.4-1.8c0.1-0.5,0.3-0.9,0.5-1.1c0.2-0.2,0.5-0.4,0.7-0.4c0.2,0,0.4,0.1,0.6,0.2
		c0.2,0.1,0.4,0.3,0.6,0.5s0.3,0.4,0.4,0.7s0.2,0.5,0.2,0.7c0,0,0,0.1,0,0.1S228.6,89.6,228.6,89.7z"/>
	<path d="M237.4,81.5c0,0.9-0.2,1.9-0.5,2.9s-0.8,1.9-1.4,2.8c-0.6,0.9-1.4,1.7-2.3,2.3c-0.9,0.7-2,1.2-3.2,1.6
		c0.2,0.4,0.4,0.8,0.6,1.2c0.3,0.4,0.6,0.7,1,1c0.4,0.3,0.8,0.5,1.3,0.7c0.5,0.2,1.1,0.2,1.7,0.2c1,0,1.8-0.2,2.5-0.5
		c0.7-0.4,1.3-0.9,1.8-1.5c0.5-0.6,0.9-1.3,1.2-2c0.3-0.7,0.5-1.5,0.7-2.3c0.1-0.6,0.3-0.9,0.7-1.1c0.3-0.2,0.7-0.2,1.1-0.1
		s0.7,0.3,1,0.6c0.3,0.3,0.4,0.7,0.3,1.1c-0.1,0.5-0.2,1.1-0.3,1.7c-0.2,0.7-0.4,1.3-0.7,2c-0.3,0.7-0.7,1.3-1.2,2
		c-0.5,0.6-1.1,1.2-1.8,1.7c-0.7,0.5-1.5,0.9-2.5,1.2c-0.9,0.3-2,0.5-3.2,0.5c-1.1,0-2.2-0.2-3.3-0.7c-1.1-0.4-2-1.1-2.8-1.9
		c-0.8-0.8-1.5-1.9-2-3.1c-0.5-1.2-0.7-2.6-0.7-4.2c0-1.6,0.2-3,0.7-4.4c0.4-1.4,1-2.5,1.7-3.5c0.7-1,1.5-1.8,2.4-2.3
		c0.9-0.6,1.8-0.8,2.8-0.8c0.7,0,1.3,0.1,1.9,0.4s1,0.6,1.4,1c0.4,0.4,0.7,1,0.9,1.6C237.3,80.1,237.4,80.8,237.4,81.5z M229.3,87.4
		c0,0.1,0,0.3,0,0.4c0,0.1,0,0.3,0,0.5c0.6-0.3,1.2-0.7,1.7-1.1c0.5-0.5,0.9-1,1.3-1.6c0.4-0.6,0.6-1.2,0.8-1.9
		c0.2-0.7,0.3-1.4,0.3-2.2c0-0.6-0.1-1-0.3-1.3c-0.2-0.3-0.4-0.5-0.8-0.5c-0.4,0-0.8,0.1-1.1,0.4c-0.3,0.3-0.6,0.6-0.8,1.1
		c-0.2,0.4-0.4,1-0.6,1.5c-0.2,0.6-0.3,1.1-0.4,1.7c-0.1,0.6-0.2,1.1-0.2,1.6C229.3,86.7,229.3,87.1,229.3,87.4z"/>
</g>
</svg>
