<?xml version="1.0" encoding="utf-8"?>
<!-- Generator: Adobe Illustrator 23.0.0, SVG Export Plug-In . SVG Version: 6.00 Build 0)  -->
<svg version="1.1" id="Layer_1" xmlns="http://www.w3.org/2000/svg" xmlns:xlink="http://www.w3.org/1999/xlink" x="0px" y="0px"
	 viewBox="0 0 1033 371" style="enable-background:new 0 0 1033 371;" xml:space="preserve">
<style type="text/css">
	.st0{fill:none;stroke:#CC9933;stroke-width:2;stroke-miterlimit:10;}
	.st1{enable-background:new    ;}
	.st2{fill:#DDB0B0;}
</style>
<line class="st0" x1="12.3" y1="154.1" x2="290.4" y2="204.9"/>
<line class="st0" x1="10" y1="248.3" x2="292.7" y2="245.2"/>
<line class="st0" x1="21.5" y1="350.4" x2="297.4" y2="288.6"/>
<line class="st0" x1="1016" y1="154.1" x2="737.9" y2="204.9"/>
<line class="st0" x1="1018.3" y1="248.3" x2="735.6" y2="245.2"/>
<line class="st0" x1="1006.8" y1="350.4" x2="731" y2="288.6"/>
<line class="st0" x1="267.9" y1="13.9" x2="393" y2="75.9"/>
<line class="st0" x1="270.2" y1="16.1" x2="288" y2="141.2"/>
<line class="st0" x1="760.4" y1="12.7" x2="635.4" y2="74.8"/>
<line class="st0" x1="758.1" y1="15" x2="740.3" y2="140.1"/>
<g class="st1">
	<path class="st2" d="M450.1,198.2c0,2.7-0.2,4.9-0.5,6.8c-0.3,1.9-0.8,3.4-1.4,4.6s-1.3,2-2.1,2.6c-0.8,0.5-1.7,0.8-2.7,0.8
		c-0.7,0-1.6-0.3-2.5-0.8c-0.9-0.5-1.7-1.1-2.5-1.9c-0.8-0.7-1.5-1.5-2-2.3c-0.5-0.8-0.8-1.5-0.8-2.1c0-0.4,0-0.6,0.1-0.7
		c0.1-0.1,0.2-0.1,0.4-0.1c0.2,0,0.4,0.1,0.6,0.1c0.3,0.1,0.5,0.1,0.8,0.1c1.1,0,1.9-0.7,2.4-2.1c0.5-1.4,0.7-3.6,0.7-6.7v-66.3
		c-3.7,0.3-7.3,1-10.7,2c-3.4,1-6.5,2.5-9.1,4.5c-2.6,2-4.7,4.6-6.3,7.8c-1.6,3.2-2.3,7.1-2.3,11.7c0,2.1,0.2,3.9,0.6,5.6
		c0.4,1.7,0.9,3.2,1.6,4.5c0.7,1.3,1.4,2.5,2.2,3.5c0.8,1,1.6,1.9,2.4,2.7c0.7-0.2,1.1-0.1,1.4,0.2c0.3,0.4,0.4,0.8,0.4,1.5
		c0,0.8-0.2,1.6-0.5,2.4c-0.3,0.8-0.8,1.6-1.3,2.3c-0.5,0.7-1.2,1.3-1.8,1.7c-0.7,0.4-1.4,0.7-2.1,0.7c-0.3,0-0.6,0-0.9-0.1
		c-0.3-0.1-0.6-0.3-0.9-0.5c-0.9-0.6-1.9-1.6-3.1-3.1c-1.2-1.4-2.4-3.2-3.5-5.3c-1.1-2.1-2-4.5-2.8-7.2c-0.8-2.7-1.2-5.7-1.2-8.8
		c0-5.8,1.1-10.9,3.2-15.3c2.1-4.4,5.1-8.1,9-11.1c3.8-3,8.4-5.2,13.6-6.8c5.3-1.5,11-2.3,17.3-2.3c1.4,0,3.2,0,5.2,0
		c2.1,0,4.1,0,6.1,0.1c2,0,3.9,0.1,5.5,0.1c1.6,0,2.7,0,3.3,0c0.5,0,0.9,0,1.3-0.1c0.3-0.1,0.6-0.2,0.8-0.3c0.2-0.1,0.4-0.2,0.5-0.3
		c0.1-0.1,0.2-0.1,0.3-0.1c0.2,0,0.4,0.1,0.6,0.4c0.2,0.3,0.3,0.6,0.5,0.9c0.1,0.4,0.2,0.8,0.3,1.3c0.1,0.5,0.1,0.9,0.1,1.4
		c0,0.7-0.1,1.4-0.3,2.2c-0.2,0.8-0.5,1.4-0.9,2.1c-0.4,0.6-0.9,1.1-1.5,1.5c-0.6,0.4-1.3,0.6-2.1,0.6c-0.4,0-1.2,0-2.4,0
		c-1.2,0-2.5,0-4-0.1c-1.5,0-3-0.1-4.7-0.1c-1.6,0-3.2-0.1-4.6-0.1V198.2z"/>
	<path class="st2" d="M466.5,131c0-0.9-0.1-1.5-0.2-2.1c-0.1-0.5-0.3-0.9-0.4-1.2c-0.1-0.3-0.3-0.5-0.4-0.7
		c-0.1-0.2-0.2-0.4-0.2-0.6c0-0.2,0.1-0.4,0.4-0.6c0.2-0.2,0.5-0.3,0.9-0.4c0.4-0.1,0.8-0.2,1.3-0.3c0.4-0.1,0.9-0.1,1.3-0.1
		c2,0,3.6,0.5,4.7,1.6c1.2,1,1.7,2.3,1.7,3.7v39.4c0.8-1.7,1.7-3.2,2.7-4.7c1-1.4,2-2.7,3.1-3.8c1.1-1.1,2.3-1.9,3.6-2.5
		c1.3-0.6,2.6-0.9,4.1-0.9c2,0,3.6,0.4,4.9,1.1c1.3,0.7,2.3,1.7,3,2.9c0.7,1.2,1.3,2.5,1.6,3.9c0.3,1.4,0.4,2.9,0.4,4.2v24.8
		c0,0.3,0,0.7,0.1,1.3c0,0.6,0.2,1.2,0.4,1.8c0.2,0.6,0.5,1.2,0.9,1.6s1,0.7,1.8,0.7c1.2,0,2.3-0.4,3.1-1.3c0.9-0.9,1.6-1.9,2.3-3.2
		s1.2-2.7,1.6-4.2c0.4-1.5,0.8-2.9,1-4.2c0.2-1.2,0.6-2.1,1.1-2.6c0.5-0.5,1-0.8,1.6-0.9c0.6-0.1,1.1,0.1,1.7,0.4s1.1,0.8,1.5,1.4
		c0.4,0.6,0.8,1.2,1,1.9c0.2,0.7,0.2,1.4,0.1,2c-0.5,2-1.3,4.1-2.1,6.3c-0.9,2.2-2,4.2-3.4,6c-1.4,1.8-3,3.4-4.9,4.6
		c-1.9,1.2-4.2,1.8-6.7,1.8c-1.6,0-3-0.3-4.2-0.9c-1.2-0.6-2.3-1.4-3.2-2.4s-1.5-2.2-2-3.6c-0.4-1.4-0.7-2.8-0.7-4.3v-24.4
		c0-0.9,0-1.8-0.1-2.6c0-0.8-0.1-1.5-0.3-2.2c-0.2-0.6-0.4-1.1-0.8-1.5c-0.3-0.4-0.8-0.6-1.4-0.6c-0.9,0-1.9,0.6-3.2,1.8
		c-1.3,1.2-2.5,2.7-3.7,4.6c-1.2,1.9-2.3,4-3.2,6.4c-0.9,2.4-1.5,4.7-1.7,7.1v17.5c0,0.6,0,1.2,0,1.8c0,0.6-0.1,1.2-0.4,1.6
		c-0.2,0.5-0.5,0.9-1,1.2c-0.4,0.3-1.1,0.5-2,0.5c-0.6,0-1.2-0.1-1.9-0.2c-0.7-0.1-1.3-0.4-1.9-0.8c-0.6-0.4-1-0.9-1.4-1.6
		c-0.4-0.7-0.6-1.6-0.6-2.7V131z"/>
	<path class="st2" d="M544.6,200.4c1.2,0,2.3-0.4,3.1-1.3c0.9-0.9,1.6-1.9,2.3-3.2s1.2-2.7,1.6-4.2c0.4-1.5,0.8-2.9,1-4.2
		c0.3-1.2,0.7-2.2,1.2-2.7c0.5-0.6,1.1-0.8,1.7-0.8c0.5,0,0.9,0.1,1.4,0.4c0.5,0.3,0.9,0.7,1.3,1.1s0.7,1,1,1.6
		c0.3,0.6,0.4,1.2,0.4,1.8c0,0.1,0,0.2,0,0.3s0,0.3-0.1,0.5c-0.5,2-1.2,4.1-2.1,6.3c-0.9,2.2-2,4.2-3.4,6c-1.4,1.8-3,3.4-5,4.6
		c-1.9,1.2-4.2,1.8-6.8,1.8c-2.1,0-3.9-0.4-5.5-1.3c-1.6-0.9-2.8-2.1-3.7-3.6c-1.2,1.4-2.7,2.5-4.4,3.5c-1.7,1-3.7,1.4-5.9,1.4
		c-2.3,0-4.4-0.5-6.2-1.4c-1.8-0.9-3.3-2.2-4.5-3.8c-1.2-1.6-2.1-3.5-2.7-5.7c-0.6-2.2-0.9-4.6-0.9-7.1c0-5,0.8-9.5,2.4-13.5
		c1.6-4,3.7-7.4,6.4-10.2c2.7-2.8,5.7-4.9,9.1-6.4c3.4-1.5,7-2.2,10.6-2.2c1.6,0,3,0.4,4,1.3c1,0.9,1.5,2.1,1.5,3.7
		c0,1-0.1,1.7-0.3,2.1c-0.2,0.4-0.6,0.6-1.2,0.6c-0.5,0-1.1,0-1.7-0.1c-0.6-0.1-1.2-0.1-1.8-0.1c-2.3,0-4.6,0.5-6.9,1.5
		s-4.5,2.5-6.4,4.6c-1.9,2.1-3.4,4.6-4.7,7.8c-1.2,3.1-1.8,6.9-1.8,11.2c0,3.2,0.6,5.6,1.8,7.3c1.2,1.7,2.9,2.5,5,2.5
		c1.6,0,3-0.6,4.1-1.8c1.1-1.2,2-2.7,2.6-4.4v-18.5c0-0.6,0-1.1-0.1-1.5c-0.1-0.4-0.1-0.7-0.2-1c-0.1-0.3-0.1-0.5-0.1-0.7
		c0-0.2-0.1-0.4-0.1-0.6c0-0.6,0.3-1.1,0.9-1.5c0.6-0.4,1.3-0.6,2.2-0.6c2,0,3.6,0.5,4.7,1.6c1.2,1,1.8,2.3,1.8,3.7v19.8
		c0,0.7,0.1,1.3,0.2,2c0.2,0.6,0.4,1.2,0.7,1.8c0.3,0.5,0.7,1,1.3,1.3C543.3,200.2,543.9,200.4,544.6,200.4z"/>
	<path class="st2" d="M553.1,165c0-1.1-0.1-2-0.3-2.5c-0.2-0.5-0.3-1-0.3-1.4c0-0.6,0.3-1.1,0.9-1.4c0.6-0.4,1.4-0.6,2.2-0.6
		c2,0,3.6,0.5,4.7,1.6c1.2,1,1.7,2.3,1.7,3.7v5.4c0.8-1.7,1.7-3.2,2.7-4.7c1-1.4,2-2.7,3.1-3.8c1.1-1.1,2.3-1.9,3.6-2.5
		c1.3-0.6,2.6-0.9,4.1-0.9c2,0,3.6,0.4,4.9,1.1c1.3,0.7,2.3,1.7,3,2.9c0.7,1.2,1.3,2.5,1.6,3.9c0.3,1.4,0.4,2.9,0.4,4.2v24.8
		c0,0.3,0,0.7,0.1,1.3c0,0.6,0.2,1.2,0.4,1.8c0.2,0.6,0.5,1.2,0.9,1.6s1,0.7,1.8,0.7c1.2,0,2.3-0.4,3.1-1.3c0.9-0.9,1.6-1.9,2.3-3.2
		s1.2-2.7,1.6-4.2c0.4-1.5,0.8-2.9,1-4.2c0.2-1.2,0.6-2.2,1.2-2.7c0.5-0.6,1.1-0.8,1.7-0.8c0.5,0,1,0.1,1.5,0.4
		c0.5,0.3,1,0.7,1.4,1.1s0.7,1,1,1.6c0.3,0.6,0.4,1.2,0.4,1.8c0,0.1,0,0.2,0,0.3s0,0.3-0.1,0.5c-0.5,2-1.2,4.1-2.1,6.3
		c-0.9,2.2-2,4.2-3.4,6c-1.4,1.8-3,3.4-5,4.6c-1.9,1.2-4.2,1.8-6.7,1.8c-1.6,0-3-0.3-4.2-0.9c-1.2-0.6-2.3-1.4-3.2-2.4
		s-1.5-2.2-2-3.6c-0.5-1.4-0.7-2.8-0.7-4.3v-24.4c0-0.9,0-1.8-0.1-2.6c0-0.8-0.1-1.5-0.3-2.2c-0.2-0.6-0.4-1.1-0.8-1.5
		c-0.3-0.4-0.8-0.6-1.4-0.6c-0.9,0-1.9,0.6-3.2,1.8c-1.3,1.2-2.5,2.7-3.7,4.6c-1.2,1.9-2.3,4-3.2,6.4c-0.9,2.4-1.5,4.7-1.7,7.1v17.5
		c0,0.6,0,1.2,0,1.8c0,0.6-0.1,1.2-0.4,1.6c-0.2,0.5-0.5,0.9-1,1.2c-0.5,0.3-1.1,0.5-2,0.5c-0.6,0-1.2-0.1-1.9-0.2
		c-0.7-0.1-1.3-0.4-1.9-0.8c-0.6-0.4-1-0.9-1.4-1.6c-0.4-0.7-0.6-1.6-0.6-2.7V165z"/>
	<path class="st2" d="M596.4,131c0-0.9-0.1-1.5-0.2-2.1c-0.1-0.5-0.3-0.9-0.4-1.2c-0.1-0.3-0.3-0.5-0.4-0.7
		c-0.1-0.2-0.2-0.4-0.2-0.6c0-0.2,0.1-0.4,0.4-0.6c0.2-0.2,0.5-0.3,0.9-0.4c0.4-0.1,0.8-0.2,1.3-0.3c0.4-0.1,0.9-0.1,1.3-0.1
		c2,0,3.6,0.5,4.7,1.6c1.2,1,1.7,2.3,1.7,3.7v37.4c1-1.3,2-2.6,3.1-3.8c1.1-1.2,2.2-2.2,3.4-3.2c1.2-0.9,2.4-1.6,3.7-2.2
		c1.3-0.5,2.6-0.8,4-0.8c1.9,0,3.5,0.4,4.8,1.1c1.3,0.7,2.4,1.7,3.3,2.9c0.9,1.2,1.5,2.6,1.9,4.1c0.4,1.5,0.6,3.2,0.6,4.8
		c0,2.3-0.4,4.5-1.1,6.5c-0.7,2-1.7,3.8-2.8,5.5c-1.1,1.6-2.4,3.1-3.7,4.4s-2.6,2.4-3.8,3.2c0.3,1.3,0.7,2.5,1.1,3.7
		c0.5,1.2,1.1,2.3,1.8,3.2s1.5,1.7,2.4,2.2c0.9,0.5,2,0.8,3.1,0.8c1.4,0,2.6-0.4,3.8-1.3c1.2-0.8,2.2-1.9,3.2-3.2
		c0.9-1.3,1.7-2.7,2.3-4.2c0.6-1.5,1.1-2.9,1.3-4.2c0.2-1.2,0.6-2.1,1.1-2.6c0.5-0.5,1-0.8,1.6-0.9c0.6-0.1,1.1,0.1,1.7,0.4
		s1.1,0.8,1.5,1.4c0.4,0.6,0.8,1.2,1,1.9c0.2,0.7,0.2,1.4,0.1,2c-0.5,1.6-1.3,3.5-2.3,5.6c-1,2.1-2.3,4.2-3.9,6.1
		c-1.6,1.9-3.4,3.5-5.5,4.9c-2.1,1.3-4.5,2-7.3,2c-2.3,0-4.5-0.6-6.4-1.8c-1.9-1.2-3.6-2.7-5-4.6c-1.4-1.8-2.5-3.8-3.2-6
		c-0.7-2.2-1.1-4.3-1.1-6.3c0-0.6,0.3-1.3,0.8-1.9c0.5-0.6,1.2-1.3,2.1-2.1c0.8-0.8,1.7-1.6,2.7-2.5c1-0.9,1.9-2,2.7-3.2
		c0.8-1.2,1.5-2.5,2.1-4c0.5-1.5,0.8-3.1,0.8-5c0-1.5-0.4-2.7-1.1-3.6c-0.7-0.9-1.7-1.4-2.8-1.4c-0.7,0-1.6,0.3-2.5,0.8
		s-2,1.4-3.1,2.7c-1.1,1.3-2.2,3-3.3,5.1c-1.1,2.1-2.1,4.8-3,7.9v20.6c0,0.6,0,1.2,0,1.8c0,0.6-0.1,1.2-0.4,1.6
		c-0.2,0.5-0.5,0.9-1,1.2c-0.4,0.3-1.1,0.5-2,0.5c-0.6,0-1.2-0.1-1.9-0.2c-0.7-0.1-1.3-0.4-1.9-0.8c-0.6-0.4-1-0.9-1.4-1.6
		c-0.4-0.7-0.6-1.6-0.6-2.7V131z"/>
</g>
<g class="st1">
	<path class="st2" d="M516.7,310.5v3.6c1.1-0.2,2.2-0.3,3.3-0.4c1.1-0.1,2.1-0.2,3-0.2c0.9,0,1.6,0.2,2.1,0.6c0.5,0.4,0.8,1,0.9,1.7
		s0.1,1.5-0.1,2.3c-0.2,0.8-0.5,1.6-0.9,2.3c-0.4,0.7-0.9,1.3-1.6,1.8c-0.6,0.5-1.3,0.8-2,0.8c-0.9,0-1.7,0-2.5,0.1
		c-0.8,0-1.6,0.1-2.4,0.2c-0.2,3.5-0.6,6.9-1.1,10.4c-0.6,3.5-1.5,6.6-2.8,9.4c-1.3,2.8-3,5.1-5.2,6.8c-2.2,1.7-5,2.6-8.5,2.6
		c-2.1,0-3.9-0.4-5.6-1.1c-1.7-0.7-3.1-1.7-4.2-3c-1.2-1.3-2.1-2.8-2.7-4.5c-0.6-1.7-0.9-3.6-0.9-5.6c0-3,0.6-5.7,1.9-8.1
		c1.2-2.3,2.9-4.4,4.9-6.2c2-1.8,4.4-3.3,7-4.5c2.6-1.2,5.3-2.3,8.1-3.1V315v-16.6c-1.3,2.1-2.6,4-4,5.8s-2.9,3.4-4.4,4.7
		c-1.5,1.3-3.1,2.4-4.8,3.2s-3.3,1.1-5,1.1c-0.9,0-1.8-0.2-2.7-0.5c-1-0.4-1.8-0.9-2.6-1.7c-0.8-0.8-1.5-1.9-2-3.2
		c-0.5-1.3-0.8-3-0.8-5v-67.6c-2.7,0.4-5.2,1.1-7.6,2.3s-4.5,2.8-6.3,4.8c-1.8,2-3.2,4.5-4.2,7.4c-1,2.9-1.6,6.2-1.6,10
		c0,2.4,0.3,4.6,0.8,6.5c0.5,1.9,1.1,3.6,1.8,4.9s1.4,2.4,2.1,3.1c0.7,0.7,1.2,1.1,1.6,1.1c0.4,0,0.7-0.1,1-0.2
		c0.3-0.2,0.6-0.2,0.9-0.2c0.6,0,0.9,0.5,0.9,1.5c0,1.3-0.3,2.5-0.8,3.6c-0.6,1.2-1.3,2.1-2.1,2.8c-0.9,0.7-1.8,1.2-2.8,1.4
		c-1,0.2-2,0-2.8-0.6c-1.1-0.7-2.2-1.8-3.4-3.2c-1.2-1.4-2.3-3.2-3.3-5.2s-1.8-4.4-2.5-6.9s-1-5.4-1-8.4c0-4.2,0.5-8,1.5-11.3
		c1-3.3,2.4-6.3,4.1-8.8c1.7-2.5,3.7-4.6,5.9-6.4c2.3-1.8,4.6-3.2,7.1-4.3c2.5-1.1,5-1.9,7.6-2.4c2.6-0.5,5-0.7,7.4-0.7
		c0.6,0,1.2,0.1,1.8,0.4c0.6,0.3,1.1,0.6,1.5,1.1c0.4,0.4,0.8,1,1.1,1.6c0.3,0.6,0.4,1.3,0.4,2v71.2c0,0.8,0.1,1.3,0.4,1.4
		c0.3,0.2,0.5,0.3,0.7,0.3c0.6,0,1.4-0.4,2.4-1.3c1-0.8,2.1-2,3.3-3.3c1.2-1.4,2.4-3,3.6-4.8c1.2-1.8,2.3-3.7,3.3-5.7
		c1-2,1.8-3.9,2.4-5.9c0.6-2,0.9-3.8,0.9-5.5v-45.6c0-1.1-0.1-2-0.2-2.5c-0.2-0.5-0.2-1-0.2-1.4c0-0.6,0.3-1.1,0.9-1.5
		c0.6-0.4,1.3-0.6,2.2-0.6c2,0,3.6,0.5,4.9,1.6c1.2,1,1.9,2.3,1.9,3.8V310.5z M499.2,343.2c1.3,0,2.5-0.5,3.4-1.5
		c0.9-1,1.7-2.3,2.3-4c0.6-1.7,1.1-3.6,1.4-5.7c0.3-2.2,0.6-4.4,0.7-6.8c-4,1.2-7,2.9-9.1,5.1c-2.1,2.2-3.1,4.8-3.1,7.8
		c0,1.8,0.4,3.2,1.3,4C496.9,342.8,497.9,343.2,499.2,343.2z"/>
	<path class="st2" d="M572.2,290.1c0.1-0.5,0.3-0.9,0.8-1.2c0.4-0.3,1-0.5,1.6-0.6s1.2-0.1,1.8,0s1.2,0.4,1.7,0.8
		c0.5,0.4,0.8,1,1.1,1.7c0.2,0.7,0.2,1.7-0.1,2.8c-0.4,1.6-0.9,3.2-1.7,4.6c-0.8,1.4-1.8,2.7-3,3.8c-1.2,1.1-2.6,2-4.3,2.6
		c-1.6,0.6-3.5,0.9-5.5,0.9c-1.1,0-2.1-0.1-3.1-0.2c-1-0.1-1.9-0.3-2.8-0.6c-1.5,2.6-3.4,4.7-5.7,6.2s-5.2,2.4-8.7,2.4
		c-3,0-5.7-0.6-7.9-1.8c-2.2-1.2-4-2.8-5.4-4.9c-1.4-2.1-2.5-4.4-3.2-7.1c-0.7-2.7-1-5.5-1-8.6c0-4.4,0.5-8.4,1.6-11.9
		c1-3.5,2.2-6.5,3.6-8.9c1.4-2.4,2.7-4.3,4.1-5.6s2.4-1.9,3-1.9c0.8,0,1.5,0.3,2.1,1c0.6,0.7,1.1,1.5,1.4,2.4
		c0.3,0.9,0.4,1.8,0.2,2.8c-0.1,0.9-0.6,1.7-1.4,2.2c-0.5,0.7-1,1.6-1.7,2.6c-0.6,1-1.3,2.2-1.8,3.7c-0.6,1.5-1,3.3-1.4,5.4
		c-0.4,2.1-0.6,4.6-0.6,7.6c0,2.5,0.2,4.7,0.7,6.6c0.4,1.9,1.1,3.4,1.9,4.7c0.8,1.3,1.7,2.2,2.8,2.8c1,0.6,2.1,0.9,3.3,0.9
		c1.7,0,3.1-0.4,4.2-1.3c1.1-0.8,2.1-1.9,2.8-3.3c-2.8-2.4-5-5.5-6.4-9.2c-1.5-3.7-2.2-7.8-2.2-12.1c0-1.9,0.2-3.7,0.6-5.4
		s1-3.2,1.8-4.5c0.8-1.3,1.8-2.3,3-3.1c1.2-0.8,2.6-1.1,4.2-1.1c1.4,0,2.7,0.5,4,1.5c1.2,1,2.3,2.4,3.3,4.2c0.9,1.8,1.7,3.9,2.2,6.4
		s0.8,5.1,0.8,8c0,2.2-0.1,4.4-0.4,6.6c-0.3,2.2-0.7,4.3-1.3,6.3c0.4,0.2,0.8,0.2,1.2,0.3c0.4,0,0.8,0,1.2,0c1.3,0,2.4-0.2,3.4-0.7
		s1.8-1.1,2.5-1.9c0.7-0.8,1.3-1.7,1.7-2.8C571.7,292.4,572,291.3,572.2,290.1z M549.3,279c0,2.7,0.4,5.3,1.3,7.7
		c0.8,2.4,1.9,4.5,3.3,6.3c0.2-1.9,0.4-3.8,0.4-5.5c0-2,0-3.9-0.1-5.7c-0.1-1.7-0.2-3.2-0.4-4.5c-0.2-1.2-0.5-2.2-0.9-3
		c-0.4-0.7-0.9-1.1-1.5-1.1C550,273.3,549.3,275.2,549.3,279z"/>
	<path class="st2" d="M605.3,313.3c-1.4,0-2.6-0.2-3.7-0.6c-1.1-0.4-2.1-1-2.9-1.8c-0.8-0.8-1.5-1.7-2.1-2.7c-0.5-1-0.9-2.2-1.1-3.4
		c-1.4,2.5-3.1,4.6-5.1,6.2c-2,1.6-4.3,2.4-6.9,2.4c-2,0-3.8-0.4-5.4-1.2s-2.9-2-4-3.5c-1.1-1.5-1.9-3.3-2.5-5.4
		c-0.6-2.1-0.8-4.5-0.8-7.1c0-3.2,0.2-6.3,0.7-9.6c0.4-3.2,0.9-6.1,1.5-8.7c0.6-3,1.3-5.9,2.2-8.7c0.2-0.5,0.3-1,0.4-1.6
		c0.1-0.5,0.3-1,0.7-1.4c0.4-0.4,0.9-0.8,1.7-1.1c0.8-0.3,1.9-0.4,3.5-0.4c1.5,0,2.4,0.3,2.9,0.8c0.4,0.5,0.6,1.1,0.5,1.8
		c-0.1,0.7-0.3,1.4-0.7,2.2c-0.4,0.7-0.6,1.3-0.7,1.8c-0.5,2.2-1,4.3-1.5,6.1c-0.4,1.8-0.8,3.7-1.1,5.5c-0.3,1.9-0.5,3.8-0.7,5.8
		c-0.2,2-0.2,4.3-0.2,6.8c0,3.3,0.5,5.8,1.4,7.4c1,1.7,2.3,2.5,4.1,2.5c1.2,0,2.3-0.4,3.4-1.3c1-0.9,2-2.1,2.8-3.6
		c0.8-1.5,1.6-3.2,2.2-5.2c0.6-1.9,1.1-4,1.5-6.1V270c0-0.9-0.1-1.5-0.2-2.1c-0.1-0.5-0.3-0.9-0.4-1.2c-0.1-0.3-0.3-0.5-0.4-0.7
		c-0.1-0.2-0.2-0.4-0.2-0.6c0-0.2,0.1-0.4,0.4-0.5c0.2-0.2,0.5-0.3,0.9-0.4c0.4-0.1,0.8-0.2,1.3-0.3c0.4-0.1,0.9-0.1,1.3-0.1
		c2,0,3.6,0.5,4.7,1.6c1.2,1,1.7,2.3,1.7,3.7v30.5c0,0.3,0,0.7,0.1,1.3c0,0.6,0.2,1.2,0.4,1.8c0.2,0.6,0.5,1.2,0.9,1.6
		c0.4,0.5,1,0.7,1.8,0.7c1.2,0,2.3-0.4,3.1-1.3c0.9-0.9,1.6-1.9,2.3-3.2s1.2-2.7,1.6-4.2c0.4-1.5,0.8-2.9,1-4.2
		c0.2-1.2,0.6-2.2,1.2-2.7c0.5-0.6,1.1-0.8,1.7-0.8c0.5,0,1,0.1,1.5,0.4c0.5,0.3,1,0.7,1.4,1.1s0.7,1,1,1.6c0.3,0.6,0.4,1.2,0.4,1.8
		c0,0.1,0,0.2,0,0.3s0,0.3-0.1,0.5c-0.5,2-1.3,4.1-2.1,6.3c-0.9,2.2-2,4.2-3.4,6c-1.4,1.8-3,3.4-4.9,4.6
		C610.1,312.7,607.8,313.3,605.3,313.3z"/>
</g>
</svg>
