<?xml version="1.0" encoding="utf-8"?>
<!-- Generator: Adobe Illustrator 23.0.0, SVG Export Plug-In . SVG Version: 6.00 Build 0)  -->
<svg version="1.1" id="Layer_1" xmlns="http://www.w3.org/2000/svg" xmlns:xlink="http://www.w3.org/1999/xlink" x="0px" y="0px"
	 viewBox="0 0 362.7 147.5" style="enable-background:new 0 0 362.7 147.5;" xml:space="preserve">
<style type="text/css">
	.st0{stroke:#000000;stroke-width:2;stroke-miterlimit:10;}
	.st1{fill:none;stroke:#000000;stroke-width:2;stroke-miterlimit:10;}
	.st2{enable-background:new    ;}
</style>
<path class="st0" d="M0.8,59.7l100,18.3 M0,93.6l101.7-1.1 M4.1,130.3l99.2-22.2 M361.9,59.7L261.9,78 M362.7,93.6L261,92.5
	 M358.6,130.3l-99.2-22.2"/>
<path class="st1" d="M92.8,9.2l45,22.3 M93.6,10.1l6.4,45 M270,8.8l-45,22.3 M269.1,9.6l-6.4,45"/>
<g class="st2">
	<path d="M165.9,90.5c0,1.5-0.2,2.7-0.5,3.7c-0.4,1-0.8,1.8-1.4,2.5c-0.6,0.6-1.2,1.1-2,1.4c-0.7,0.3-1.5,0.4-2.2,0.4
		c-0.2,0-0.5,0-0.9-0.1c-0.4,0-0.8-0.1-1.2-0.3s-0.9-0.4-1.3-0.6c-0.4-0.3-0.9-0.7-1.3-1.1c-0.3,0.5-0.7,0.8-1.1,1.1
		c-0.4,0.3-0.8,0.5-1.2,0.6c-0.4,0.1-0.8,0.2-1.1,0.3c-0.3,0-0.6,0.1-0.9,0.1c-0.8,0-1.5-0.1-2.2-0.4c-0.7-0.3-1.4-0.7-1.9-1.4
		c-0.6-0.6-1-1.4-1.3-2.5c-0.3-1-0.5-2.2-0.5-3.7V67.8c0-0.6,0-1.2-0.1-1.6s-0.2-0.8-0.3-1.1c-0.1-0.3-0.3-0.5-0.5-0.7
		c-0.2-0.2-0.5-0.3-0.8-0.4c-0.1,0-0.2-0.1-0.2-0.2c0-0.1,0.1-0.3,0.3-0.5c0.2-0.2,0.5-0.4,0.8-0.5c0.3-0.2,0.7-0.3,1-0.5
		c0.4-0.1,0.7-0.2,1.1-0.2c0.3,0,0.6,0.1,0.9,0.2c0.3,0.2,0.6,0.4,0.9,0.8c0.3,0.4,0.5,0.9,0.6,1.6c0.2,0.7,0.2,1.5,0.2,2.5V91
		c0,1,0.1,1.7,0.3,2.2c0.2,0.5,0.4,0.9,0.6,1.1c0.3,0.2,0.5,0.4,0.8,0.4c0.3,0,0.5,0.1,0.6,0.1c0.2,0,0.4,0,0.7-0.1
		c0.3,0,0.5-0.2,0.8-0.5c0.3-0.3,0.5-0.7,0.6-1.3c0.2-0.6,0.3-1.4,0.3-2.5V66c0-0.2,0-0.4,0-0.6c0-0.2,0-0.3-0.1-0.4
		c0-0.1,0-0.2-0.1-0.3c0-0.1,0-0.2,0-0.3c0-0.3,0.1-0.5,0.4-0.6c0.3-0.2,0.6-0.2,0.9-0.2c0.8,0,1.5,0.2,2,0.6
		c0.5,0.4,0.8,0.9,0.8,1.6V91c0,1,0.1,1.7,0.3,2.2c0.2,0.5,0.4,0.9,0.6,1.1c0.2,0.2,0.5,0.4,0.8,0.4c0.3,0,0.5,0.1,0.7,0.1
		c0.2,0,0.4,0,0.7-0.1c0.3,0,0.5-0.2,0.8-0.4c0.3-0.2,0.5-0.6,0.7-1.1c0.2-0.5,0.3-1.2,0.3-2.2V67.3c0-1,0.1-1.8,0.2-2.5
		c0.2-0.7,0.4-1.2,0.6-1.6c0.3-0.4,0.5-0.7,0.8-0.8c0.3-0.2,0.6-0.2,0.9-0.2c0.4,0,0.7,0.1,1.1,0.2c0.4,0.1,0.7,0.3,1,0.5
		c0.3,0.2,0.6,0.4,0.8,0.5c0.2,0.2,0.3,0.3,0.3,0.5c0,0.1-0.1,0.1-0.2,0.2c-0.3,0.1-0.6,0.2-0.8,0.4c-0.2,0.2-0.4,0.4-0.5,0.7
		c-0.1,0.3-0.2,0.7-0.3,1.1c-0.1,0.4-0.1,1-0.1,1.6V90.5z"/>
	<path d="M189,88.8c0-0.2,0.1-0.4,0.3-0.5c0.2-0.1,0.4-0.2,0.6-0.3s0.5,0,0.8,0s0.5,0.2,0.7,0.3c0.2,0.2,0.3,0.4,0.4,0.7
		c0.1,0.3,0.1,0.7,0,1.2c-0.1,0.7-0.4,1.3-0.7,1.9c-0.3,0.6-0.8,1.1-1.3,1.6c-0.5,0.5-1.1,0.8-1.8,1.1c-0.7,0.3-1.4,0.4-2.3,0.4
		c-0.5,0-0.9,0-1.3-0.1c-0.4,0-0.8-0.1-1.2-0.3c-0.6,1.1-1.4,1.9-2.4,2.6c-1,0.7-2.2,1-3.6,1c-1.3,0-2.4-0.2-3.3-0.7
		c-0.9-0.5-1.7-1.2-2.3-2c-0.6-0.9-1-1.8-1.3-3c-0.3-1.1-0.4-2.3-0.4-3.6c0-1.8,0.2-3.5,0.6-4.9c0.4-1.5,0.9-2.7,1.5-3.7
		c0.6-1,1.1-1.8,1.7-2.3s1-0.8,1.3-0.8c0.3,0,0.6,0.1,0.9,0.4c0.3,0.3,0.5,0.6,0.6,1c0.1,0.4,0.2,0.8,0.1,1.2
		c-0.1,0.4-0.2,0.7-0.6,0.9c-0.2,0.3-0.4,0.7-0.7,1.1c-0.3,0.4-0.5,0.9-0.8,1.5c-0.2,0.6-0.4,1.4-0.6,2.2c-0.2,0.9-0.2,1.9-0.2,3.2
		c0,1.1,0.1,2,0.3,2.8c0.2,0.8,0.4,1.4,0.8,2c0.3,0.5,0.7,0.9,1.1,1.2c0.4,0.3,0.9,0.4,1.4,0.4c0.7,0,1.3-0.2,1.8-0.5
		c0.5-0.3,0.9-0.8,1.2-1.4c-1.2-1-2.1-2.3-2.7-3.8c-0.6-1.6-0.9-3.2-0.9-5c0-0.8,0.1-1.5,0.3-2.2c0.2-0.7,0.4-1.3,0.8-1.9
		c0.3-0.5,0.8-1,1.3-1.3c0.5-0.3,1.1-0.5,1.8-0.5c0.6,0,1.1,0.2,1.7,0.6c0.5,0.4,1,1,1.4,1.8c0.4,0.7,0.7,1.6,0.9,2.7
		s0.3,2.1,0.3,3.3c0,0.9-0.1,1.8-0.2,2.8c-0.1,0.9-0.3,1.8-0.5,2.6c0.2,0.1,0.3,0.1,0.5,0.1c0.2,0,0.3,0,0.5,0c0.5,0,1-0.1,1.4-0.3
		s0.8-0.5,1.1-0.8c0.3-0.3,0.5-0.7,0.7-1.1S188.9,89.3,189,88.8z M179.5,84.2c0,1.1,0.2,2.2,0.5,3.2c0.3,1,0.8,1.9,1.4,2.6
		c0.1-0.8,0.1-1.6,0.1-2.3c0-0.8,0-1.6,0-2.4c0-0.7-0.1-1.3-0.2-1.9c-0.1-0.5-0.2-0.9-0.4-1.2c-0.2-0.3-0.4-0.5-0.6-0.5
		C179.8,81.8,179.5,82.6,179.5,84.2z"/>
	<path d="M199.9,98.5c-0.6,0-1.2-0.1-1.8-0.3c-0.6-0.2-1.2-0.5-1.7-0.9c-0.5-0.4-0.9-1-1.2-1.7c-0.3-0.7-0.5-1.6-0.5-2.7
		c0-1.6,0.2-3.3,0.6-5.1c0.4-1.8,1.1-3.8,1.9-5.9h-3.8h-0.6c0,0.5,0,1.1-0.1,1.9c0,0.7-0.1,1.5-0.2,2.4c-0.1,0.8-0.2,1.7-0.4,2.6
		c-0.2,0.9-0.3,1.7-0.6,2.4c-0.2,0.5-0.4,0.8-0.8,0.9c-0.4,0.1-0.7,0-1-0.2c-0.3-0.2-0.6-0.5-0.8-0.9s-0.3-0.8-0.1-1.2
		c0.1-0.5,0.2-1.1,0.3-1.8c0.1-0.7,0.2-1.5,0.2-2.3c0.1-0.8,0.1-1.6,0.1-2.4c0-0.8,0.1-1.5,0.1-2.2c-0.6-0.3-1.1-0.8-1.5-1.3
		c-0.4-0.5-0.6-1.2-0.6-1.9c0-0.3,0.1-0.7,0.2-0.9c0.1-0.3,0.3-0.5,0.5-0.7c0.2-0.2,0.5-0.4,0.8-0.5c0.3-0.1,0.6-0.2,1-0.2
		c0.3,0,0.6,0,0.9,0.1c0.3,0.1,0.6,0.2,0.9,0.4c0.3,0.2,0.5,0.5,0.8,0.8s0.4,0.8,0.6,1.3c0.4,0,0.8,0.1,1,0.1c0.3,0,0.5,0,0.7,0.1
		c0.2,0,0.4,0,0.5,0s0.3,0,0.4,0h2.6c0.1,0,0.4,0.1,0.6,0.3c0.3,0.2,0.6,0.4,0.8,0.7c0.3,0.3,0.5,0.6,0.7,0.9
		c0.2,0.3,0.3,0.6,0.2,0.9c0,0.1-0.1,0.3-0.2,0.7c-0.1,0.4-0.3,0.8-0.4,1.4c-0.2,0.6-0.3,1.2-0.5,2c-0.2,0.7-0.4,1.5-0.5,2.3
		c-0.2,0.8-0.3,1.7-0.4,2.5c-0.1,0.9-0.2,1.7-0.2,2.6c0,0.3,0,0.7,0.1,1c0.1,0.3,0.2,0.6,0.4,0.9c0.2,0.3,0.4,0.5,0.6,0.6
		c0.3,0.1,0.5,0.2,0.9,0.2c0.6,0,1.1-0.2,1.5-0.5c0.4-0.4,0.7-0.8,1-1.3s0.5-1.1,0.7-1.7c0.2-0.6,0.3-1.2,0.4-1.8
		c0.1-0.5,0.3-0.9,0.5-1.1c0.2-0.2,0.5-0.4,0.7-0.4c0.2,0,0.4,0.1,0.6,0.2c0.2,0.1,0.4,0.3,0.6,0.5s0.3,0.4,0.4,0.7
		c0.1,0.2,0.2,0.5,0.2,0.7c0,0.1,0,0.1,0,0.2s0,0.1,0,0.1c-0.2,0.8-0.5,1.7-0.9,2.6c-0.4,0.9-0.8,1.8-1.4,2.5
		c-0.6,0.8-1.3,1.4-2.1,1.9C201.9,98.2,201,98.5,199.9,98.5z"/>
	<path d="M204.4,66.3c0-0.4,0-0.6-0.1-0.9c-0.1-0.2-0.1-0.4-0.2-0.5c-0.1-0.1-0.1-0.2-0.2-0.3c-0.1-0.1-0.1-0.1-0.1-0.2
		c0-0.1,0-0.2,0.1-0.2c0.1-0.1,0.2-0.1,0.4-0.2s0.3-0.1,0.5-0.1c0.2,0,0.4,0,0.5,0c0.8,0,1.5,0.2,2,0.6c0.5,0.4,0.7,0.9,0.7,1.6
		v15.6c0.4-0.6,0.8-1.1,1.3-1.6c0.4-0.5,0.9-0.9,1.4-1.3c0.5-0.4,1-0.7,1.5-0.9c0.5-0.2,1.1-0.3,1.6-0.3c0.8,0,1.4,0.2,2,0.5
		c0.6,0.3,1,0.7,1.4,1.2c0.4,0.5,0.6,1.1,0.8,1.7c0.2,0.6,0.3,1.3,0.3,2c0,1-0.2,1.9-0.5,2.7c-0.3,0.8-0.7,1.6-1.2,2.3
		s-1,1.3-1.5,1.8s-1.1,1-1.6,1.3c0.1,0.5,0.3,1.1,0.5,1.6c0.2,0.5,0.5,0.9,0.7,1.3s0.6,0.7,1,0.9c0.4,0.2,0.8,0.3,1.3,0.3
		c0.6,0,1.1-0.2,1.6-0.5c0.5-0.3,0.9-0.8,1.3-1.3c0.4-0.5,0.7-1.1,1-1.7c0.3-0.6,0.4-1.2,0.6-1.8c0.1-0.5,0.2-0.9,0.5-1.1
		c0.2-0.2,0.4-0.4,0.7-0.4c0.2,0,0.5,0,0.7,0.2s0.5,0.3,0.6,0.6c0.2,0.2,0.3,0.5,0.4,0.8c0.1,0.3,0.1,0.6,0,0.8
		c-0.2,0.7-0.6,1.4-1,2.3c-0.4,0.9-1,1.7-1.6,2.5c-0.7,0.8-1.4,1.5-2.3,2c-0.9,0.6-1.9,0.8-3,0.8c-1,0-1.9-0.3-2.7-0.8
		c-0.8-0.5-1.5-1.1-2.1-1.9c-0.6-0.8-1-1.6-1.3-2.5c-0.3-0.9-0.5-1.8-0.5-2.6c0-0.3,0.1-0.5,0.3-0.8c0.2-0.3,0.5-0.6,0.9-0.9
		c0.3-0.3,0.7-0.7,1.1-1.1c0.4-0.4,0.8-0.8,1.1-1.3c0.3-0.5,0.6-1,0.9-1.6c0.2-0.6,0.3-1.3,0.3-2.1c0-0.6-0.2-1.1-0.5-1.5
		c-0.3-0.4-0.7-0.6-1.2-0.6c-0.3,0-0.6,0.1-1.1,0.3c-0.4,0.2-0.9,0.6-1.3,1.1s-0.9,1.2-1.4,2.1c-0.5,0.9-0.9,2-1.3,3.3v8.6
		c0,0.2,0,0.5,0,0.7c0,0.3-0.1,0.5-0.1,0.7c-0.1,0.2-0.2,0.4-0.4,0.5c-0.2,0.1-0.5,0.2-0.8,0.2c-0.2,0-0.5,0-0.8-0.1
		c-0.3-0.1-0.5-0.2-0.8-0.3c-0.2-0.2-0.4-0.4-0.6-0.7c-0.2-0.3-0.2-0.7-0.2-1.1V66.3z"/>
</g>
</svg>
